<svg xmlns="http://www.w3.org/2000/svg" width="349.65" height="341.398"><g data-name="Group 4"><path data-name="Path 1" d="M137.005 4.439c1.006-.692 2.53-1.64 3.678-.764 1.306-.333 2.389.868 3.126 1.793 2.609 4.172-2.408 9.789-6.693 6.66a4.6 4.6 0 01-.111-7.689z" fill="#fff"/><path data-name="Path 2" d="M201.659 0a5.571 5.571 0 013.417 3.128c.875 3.044-1.454 7-4.77 6.919-6.794-2.007-4.8-9.559 1.353-10.047z" fill="#fff"/><path data-name="Path 3" d="M245.356 4.881c.444-.845 1.322.176 1.406.77.556 1.383-.435 3.7-2.174 3.025-2.44-.615-1.318-6.169.768-3.795z" fill="#fff"/><path data-name="Path 4" d="M250.381 23.474c3.887 4.2-.266 11.915-5.8 11.559-13.909-.83-2.475-22.124 5.8-11.559z" fill="#fff"/><g data-name="Group 1"><path data-name="Path 5" d="M92.876 70.775c-.467.238-1.036 1.8-1.518 1.34-.536-.463 1.2-2.266 1.715-2.233.191 0 .307.211.31.379.029.34-.329.325-.507.514z" fill="#fff"/><path data-name="Path 6" d="M100.589 66.182c-1.248-.451-3.453 1.748-3.737.9-.211-.632.7-.76 1.088-1.027.889-.4 1.938-1.016 2.913-.564.35.207.179.865-.264.691z" fill="#fff"/><path data-name="Path 7" d="M93.101 73.823c.264-.612.419-1.508 1.085-1.793.5-.082.7.771.152.779-1.795 2.983-.851 4.441 2.465 4.947 1.976.179 3.756-1.016 5.522-1.717.426-.184.666.546.3.739-2.092.877-4.292 2.305-6.639 1.667-2.428-.53-4.076-2.086-2.885-4.622z" fill="#fff"/><path data-name="Path 8" d="M84.653 74.622a6.491 6.491 0 00-.157 2.837c.135 5.393 6.25 7.635 10.866 7.613 4.356-.2 8.047-2.556 12.1-3.809.448-.121.632.658.216.8a20.083 20.083 0 00-3.52 1.344c-3.2 1.358-6.585 2.732-10.124 2.49-5.123-.448-10.528-3.414-10.227-9.223-.045-1.034-.106-2.248.736-3a.278.278 0 01.431.05c.279.359-.166.621-.321.898z" fill="#fff"/><path data-name="Path 9" d="M123.275 79.781c.3.1.3.682-.043.7-.583.185-1.774 2.008-2.22 1.266-.282-.71.779-1.059 1.162-1.5.319-.217.682-.574 1.101-.466z" fill="#fff"/><path data-name="Path 10" d="M94.737 62.491a47.825 47.825 0 00-5.252 4c-6.871 8.284-1.695 16.616 8.743 15.581 5.86-.664 11.1-3.819 16.28-6.422a34.718 34.718 0 007.268-6.067 44.248 44.248 0 014.47-3.428c.558-.351 1.811-1.386 2.123-.537.022.156-.057.381-.241.4v-.007c-4.826 2.219-7.788 6.946-12.281 9.676-5.4 3.107-13.186 7.613-19.487 7.147-9 .477-13.252-7.069-8.982-14.771 2.46-4.21 7.344-6.117 11.109-8.928 1.994.303-3.259 3.077-3.75 3.356z" fill="#fff"/><path data-name="Path 11" d="M119.46 64.984c-6.685 4.131-13.5 9.515-21.637 9.87-1.885 0-2-1.9-.629-2.859 3.56-2.251 7.614-3.652 11.312-5.676 5.117-2.314 9.724-5.54 14.473-8.487 1.009-.331 5.127-4.654 5.315-2.486-.63 2.428-5.482 5.06-7.446 6.791a88.375 88.375 0 01-16.315 9.3c-.384.142-.97.779-1.248.209a.432.432 0 01.152-.537c8.69-3.989 17.281-8.782 24.108-15.526-4.615 3.278-9.426 6.339-14.315 9.246-5 2.667-10.21 4.893-15.227 7.508-4.181 3.139 4.867 1.1 5.982.431 7.272-3.008 13.725-7.581 20.165-12.027 1.693-1.251 8.684-5.795 8.555-7.6-1.759-2.013-8.958 2.765-11 3.847-7.687 6-16.471 9.607-25.072 13.523-.3.118-.512.533-.849.455-1.62-1.281 7.6-3.958 8.541-4.839a83.341 83.341 0 0014.017-7.688c4.149-2.847 8.672-6.386 13.879-6.567 5.507 2.334-10.858 11.291-12.761 13.112z" fill="#fff"/><path data-name="Path 12" d="M87.042 66.514q-.29.326-.568.675a.324.324 0 01.248.351.3.3 0 01-.588.089c-3.64 4.871-5.306 12.386-.979 17.2 2.407 2.553 6.948 3.5 10.337 3.429a38.837 38.837 0 0017.331-7.113 121.972 121.972 0 0115.112-12.18c1.594-1.373 3.343-2.534 5.015-3.806.417-.274.757.467.4.726a419.18 419.18 0 00-14.861 11.2c-2.522 1.743-4.374 4.261-6.917 5.948-5.2 3.214-11.186 5.784-17.335 6.063a17.676 17.676 0 01-8.325-2.543 11.6 11.6 0 01-3.762-5.88 17.82 17.82 0 014.484-14.721c.334-.216.614.3.408.562z" fill="#fff"/><path data-name="Path 13" d="M137.214 57.281c-2.047 2-3.635 4.37-5.7 6.333a.32.32 0 01-.476-.136c-.32-.579 1.2-1.462 1.512-2.059.928-1.052 1.77-2.172 2.709-3.212a9.351 9.351 0 002.762-3.893c4.228-14.251-19.678-1.785-24.7.886-3.411 1.778-6.28 4.339-9.566 6.29-6.12 3.032-15.873 6.636-14.543 15.079 7.563 11.392 29.1-9.779 36.872-14.167 3.206-1.37 8.626-6.073 9.309-9.552.451-1.888-.5-3.054-2.467-2.839-4.09.107-7.406 2.632-11.006 4.252a177.62 177.62 0 00-18.026 10.703.3.3 0 01-.385.214c-1.508-1.011 5.322-4.03 6.085-4.693a111.349 111.349 0 0112.24-7.089c3.325-1.461 6.361-3.767 10.07-4.107 3.89-.763 5.068 1.981 3.685 5.274a18.4 18.4 0 01-4.221 5.113 20.185 20.185 0 01-5.815 3.948c-2.933 2.169-5.942 4.238-8.844 6.447-6.664 4.605-13.724 10.67-22.234 10.624-7.364-.625-7.6-8.019-3.242-12.537a28.973 28.973 0 015.77-4.285c2.52-1.369 5.317-2.318 7.731-3.873 8.265-6.148 17.771-11.24 27.978-13.112 7.434-1.061 7.951 5.549 4.502 10.391z" fill="#fff"/><path data-name="Path 14" d="M103.257 89.737c-4.356 1.665-14.665 2-18.207-1.268-4.149-3.728-6.059-7.4-5.159-13.049.559-9.063 9.059-14.6 16.5-18.156 5.991-2.625 11.966-5.3 17.753-8.353.177-.1.374.045.441.207.276.7-1.443 1.064-1.894 1.408-7 3.792-14.642 6.262-21.419 10.455-5.492 3.122-10.6 8.442-10.746 15.076-.989 5.212 2.024 9.806 6.215 12.644 1.944 1.22 4.32 1.064 6.521 1.2a21 21 0 0011.1-1.471c8.054-2.621 14.4-8.272 20.133-14.274 7.477-6.742 19.657-14.411 17.2-26.05-.927-3.647-4.878-3.535-7.94-3.612-6.187.742-12.493 2.334-17.626 6a31.508 31.508 0 01-3.583 1.848c-3.244 2.159-6.652 4.01-10.01 5.971a.277.277 0 01-.331.11c-.858-.68.909-1.263 1.341-1.605 3.692-1.789 6.895-4.421 10.617-6.123 4.876-3.158 10.194-5.712 16.029-6.465 3.722-.686 10.06-1.491 11.815 2.794 4.142 12.279-9.765 21.256-17.585 28.3-5.83 6.389-12.807 11.79-21.165 14.413z" fill="#fff"/><path data-name="Path 15" d="M145.59 53.435c.408.218.135.758.064 1.1a22.525 22.525 0 01-6.864 11.411 140.7 140.7 0 01-12.015 10.941c-1.116-.431.641-1.519 1-1.956 6.9-6.035 15.219-11.987 17.484-21.347a.262.262 0 01.331-.149z" fill="#fff"/><path data-name="Path 16" d="M119.46 64.984c-6.685 4.131-13.5 9.515-21.637 9.87-1.885 0-2-1.9-.629-2.859 3.56-2.251 7.614-3.652 11.312-5.676 5.117-2.314 9.724-5.54 14.473-8.487 1.009-.331 5.127-4.654 5.315-2.486-.63 2.428-5.482 5.06-7.446 6.791a88.375 88.375 0 01-16.315 9.3c-.384.142-.97.779-1.248.209a.432.432 0 01.152-.537c8.69-3.989 17.281-8.782 24.108-15.526-4.615 3.278-9.426 6.339-14.315 9.246-5 2.667-10.21 4.893-15.227 7.508-4.181 3.139 4.867 1.1 5.982.431 7.272-3.008 13.725-7.581 20.165-12.027 1.693-1.251 8.684-5.795 8.555-7.6-1.759-2.013-8.958 2.765-11 3.847-7.687 6-16.471 9.607-25.072 13.523-.3.118-.512.533-.849.455-1.62-1.281 7.6-3.958 8.541-4.839a83.341 83.341 0 0014.017-7.688c4.149-2.847 8.672-6.386 13.879-6.567 5.507 2.334-10.858 11.291-12.761 13.112z" fill="#03438d"/><path data-name="Path 17" d="M137.214 57.281c-2.047 2-3.635 4.37-5.7 6.333a.32.32 0 01-.476-.136c-.32-.579 1.2-1.462 1.512-2.059.928-1.052 1.77-2.172 2.709-3.212a9.351 9.351 0 002.762-3.893c4.228-14.251-19.678-1.785-24.7.886-3.411 1.778-6.28 4.339-9.566 6.29-6.12 3.032-15.873 6.636-14.543 15.079 7.563 11.392 29.1-9.779 36.872-14.167 3.206-1.37 8.626-6.073 9.309-9.552.451-1.888-.5-3.054-2.467-2.839-4.09.107-7.406 2.632-11.006 4.252a177.62 177.62 0 00-18.026 10.703.3.3 0 01-.385.214c-1.508-1.011 5.322-4.03 6.085-4.693a111.349 111.349 0 0112.24-7.089c3.325-1.461 6.361-3.767 10.07-4.107 3.89-.763 5.068 1.981 3.685 5.274a18.4 18.4 0 01-4.221 5.113 20.185 20.185 0 01-5.815 3.948c-2.933 2.169-5.942 4.238-8.844 6.447-6.664 4.605-13.724 10.67-22.234 10.624-7.364-.625-7.6-8.019-3.242-12.537a28.973 28.973 0 015.77-4.285c2.52-1.369 5.317-2.318 7.731-3.873 8.265-6.148 17.771-11.24 27.978-13.112 7.434-1.061 7.951 5.549 4.502 10.391z" fill="#03438d"/><path data-name="Path 18" d="M128.129 66.015v-.007c-4.826 2.219-7.788 6.946-12.281 9.676-5.4 3.107-13.186 7.613-19.487 7.147-9 .477-13.252-7.069-8.982-14.771 2.46-4.21 7.344-6.117 11.109-8.928 2 .3-3.258 3.079-3.749 3.358a47.825 47.825 0 00-5.252 4c-6.871 8.284-1.695 16.616 8.743 15.581 5.86-.664 11.1-3.819 16.28-6.422a34.718 34.718 0 007.268-6.067 44.248 44.248 0 014.47-3.428c.558-.351 1.811-1.386 2.123-.537.021.158-.063.383-.242.398z" fill="#03438d"/><path data-name="Path 19" d="M124.427 75.319c-5.835 6.394-12.812 11.8-21.171 14.418-4.356 1.665-14.665 2-18.207-1.268-4.149-3.728-6.059-7.4-5.159-13.049.559-9.063 9.059-14.6 16.5-18.156 5.991-2.625 11.966-5.3 17.753-8.353.177-.1.374.045.441.207.276.7-1.443 1.064-1.894 1.408-7 3.792-14.642 6.262-21.419 10.455-5.492 3.122-10.6 8.442-10.746 15.076-.989 5.212 2.024 9.806 6.215 12.644 1.944 1.22 4.32 1.064 6.521 1.2a21 21 0 0011.1-1.471c8.054-2.621 14.4-8.272 20.133-14.274 7.477-6.742 19.657-14.411 17.2-26.05-.927-3.647-4.878-3.535-7.94-3.612-6.187.742-12.493 2.334-17.626 6a31.508 31.508 0 01-3.583 1.848c-3.244 2.159-6.652 4.01-10.01 5.971a.277.277 0 01-.331.11c-.858-.68.909-1.263 1.341-1.605 3.692-1.789 6.895-4.421 10.617-6.123 4.876-3.158 10.194-5.712 16.029-6.465 3.722-.686 10.06-1.491 11.815 2.794 4.148 12.274-9.758 21.25-17.579 28.295z" fill="#03438d"/><path data-name="Path 20" d="M133.348 65.884a419.18 419.18 0 00-14.861 11.2c-2.522 1.743-4.374 4.261-6.917 5.948-5.2 3.214-11.186 5.784-17.335 6.063a17.676 17.676 0 01-8.325-2.543 11.6 11.6 0 01-3.762-5.88 17.82 17.82 0 014.486-14.72c.334-.216.615.3.408.562q-.29.326-.568.675a17.6 17.6 0 00-.341.44c-3.64 4.871-5.306 12.386-.979 17.2 2.407 2.553 6.948 3.5 10.337 3.429a38.837 38.837 0 0017.331-7.113 121.972 121.972 0 0115.112-12.18c1.594-1.373 3.343-2.534 5.015-3.806.418-.276.757.466.399.725z" fill="#03438d"/><path data-name="Path 21" d="M107.681 82.065a20.083 20.083 0 00-3.52 1.344c-3.2 1.358-6.585 2.732-10.124 2.49-5.123-.448-10.528-3.414-10.227-9.223-.045-1.034-.106-2.248.736-3a.278.278 0 01.431.05c.276.357-.17.619-.324.9a6.491 6.491 0 00-.157 2.837c.135 5.393 6.25 7.635 10.866 7.613 4.356-.2 8.047-2.556 12.1-3.809.452-.126.635.653.219.798z" fill="#03438d"/><path data-name="Path 22" d="M102.623 76.777c-2.092.877-4.292 2.305-6.639 1.667-2.425-.529-4.074-2.084-2.883-4.622.264-.612.419-1.508 1.085-1.793.5-.082.7.771.152.779-1.795 2.983-.851 4.441 2.465 4.947 1.976.179 3.756-1.016 5.522-1.717.426-.183.666.546.298.739z" fill="#03438d"/><path data-name="Path 23" d="M100.589 66.182c-1.248-.451-3.453 1.748-3.737.9-.211-.632.7-.76 1.088-1.027.889-.4 1.938-1.016 2.913-.564.35.207.179.865-.264.691z" fill="#03438d"/><path data-name="Path 24" d="M92.876 70.775c-.467.238-1.036 1.8-1.518 1.34-.536-.463 1.2-2.266 1.715-2.233.191 0 .307.211.31.379.029.34-.329.325-.507.514z" fill="#03438d"/><path data-name="Path 25" d="M145.516 50.062c-2.478-13.351-20.03-7.388-28.11-3.025-.479.392-.97-.5-.376-.659a62.039 62.039 0 0113.241-5.072c6.992-.9 14.775.273 15.927 8.53.131.523-.489.8-.682.226z" fill="#03438d"/><path data-name="Path 26" d="M145.654 54.535a22.525 22.525 0 01-6.864 11.411 140.7 140.7 0 01-12.015 10.941c-1.116-.431.641-1.519 1-1.956 6.9-6.035 15.219-11.987 17.484-21.347a.262.262 0 01.334-.149c.405.216.132.758.061 1.1z" fill="#03438d"/><path data-name="Path 27" d="M123.231 80.485c-.583.185-1.774 2.008-2.22 1.266-.282-.71.779-1.059 1.162-1.5.32-.217.683-.579 1.1-.466.299.099.301.678-.042.7z" fill="#03438d"/></g><path data-name="Path 28" d="M250.381 23.474c-8.275-10.564-19.709 10.725-5.8 11.559 5.534.356 9.687-7.362 5.8-11.559zm-5.385 10.189c-2.655.031-6.4-1.575-5.682-4.8.781-4.754 3.59-8.208 8.668-5.98a1.125 1.125 0 00.51.515.469.469 0 00.408.318 9.857 9.857 0 011.887 3.3c-.124 3.068-2.383 6.737-5.79 6.647z" fill="#03438d"/><path data-name="Path 29" d="M205.076 3.128A5.571 5.571 0 00201.659 0c-6.153.488-8.147 8.04-1.353 10.047 3.317.079 5.646-3.875 4.77-6.919zm-4.312 5.655c-5.561-1.3-4.074-6.668.726-7.492.6.755 1.753.95 2.347 1.764 1.169 2.328-.688 5.167-3.073 5.728z" fill="#03438d"/><path data-name="Path 30" d="M246.762 5.651c-.084-.594-.962-1.615-1.406-.77-2.086-2.373-3.208 3.176-.768 3.795 1.739.677 2.73-1.642 2.174-3.025zm-1.6 1.971c-1.115-.04-1.209-1.389-.7-2.144.293.054.7.172.849-.172.025.343.408.435.5.736.216.555.049 1.505-.648 1.58z" fill="#03438d"/><g data-name="Group 2"><path data-name="Path 31" d="M270.971 14.689c-.252-.29-.315-.725.072-.936 14.06 5.8 22.246 19.693 30.656 31.719.265-.313.821-.189 1.179-.126a23.318 23.318 0 005.938.378c4.644 2.085 11.135 14.529 13.789 19.31 3.833 6.755-9.222-2.613-10.732-3.522a.639.639 0 01-.61.871c-1.561 2.02-7.626 6.173-9.158 4.988q.4 5.242.849 10.517c.042.977.735 4.237-1.19 2.937-2.339-2.536-4.229-5.476-6.465-8.093-7.1-8.879-7.768-8.464-5.124-19.793-8.797-11.423-17.1-23.697-19.204-38.25z" fill="#fff"/><path data-name="Path 32" d="M336.738 108.941c2.685 9.733-13.049-14.02-14.238-14.882-1.149 5.153-5.066-3.567-6.235-4.843-3.521-5.534-7.313-11.271-10.339-16.974-1.787-1.2 3.789-4.422 4.73-5.138 1.758-1.183 2.687-2.122 4.261-.021.877 2.265 23.078 21.209 16.165 20.3 1.664.947 19.162 22.455 9.753 16.958 2.879 4.537 6.075 8.958 8.493 13.75 2.557 9.509-10.918-8.019-12.59-9.15z" fill="#fff"/><path data-name="Path 33" d="M322.605 65.034c-2.654-4.781-9.144-17.225-13.789-19.31a23.318 23.318 0 01-5.938-.378c-.357-.063-.913-.187-1.179.126-8.41-12.026-16.6-25.922-30.656-31.719-.387.211-.324.646-.072.936 2.1 14.557 10.407 26.827 19.2 38.249-2.644 11.329-1.98 10.914 5.124 19.793 2.236 2.617 4.127 5.557 6.465 8.093 1.926 1.3 1.233-1.96 1.19-2.937q-.447-5.281-.849-10.517c1.532 1.186 7.6-2.967 9.158-4.988a.639.639 0 00.61-.871c1.514.91 14.57 10.278 10.736 3.523zm-40.01-35.112c.267.295.857.213.824-.257 1.126-.565 2.054.9 2.567 1.749 1.233 1.744.463 3.1-1.5 3.621-2.591.592-4.066-3.872-1.891-5.113zm18.391 40.485c.327 2.846.516 5.706.795 8.558-3.636-5.543-8.575-10.084-11.717-15.951-.1-2.92.776-5.807 1.157-8.727 3.16 4.1 6.547 8.025 9.845 12.016-.836 1.089-.058 2.812-.084 4.104zm11.685-10.046a.708.708 0 00-1.2.4c-2.635-4.784-5.689-9.309-8.768-13.826a.4.4 0 00.32-.088 18.965 18.965 0 006.015.393c5.009 5.571 8.894 12.146 12.563 18.664a56.452 56.452 0 01-8.934-5.543z" fill="#03438d"/><path data-name="Path 34" d="M349.328 118.088c-2.418-4.792-5.614-9.213-8.493-13.75 9.409 5.5-8.089-16.011-9.753-16.958 6.913.913-15.288-18.031-16.165-20.3-1.574-2.1-2.5-1.162-4.261.021-.941.716-6.517 3.934-4.73 5.138 3.026 5.7 6.818 11.44 10.339 16.974 1.169 1.276 5.086 10 6.235 4.843 1.188.862 16.922 24.615 14.238 14.882 1.672 1.134 15.147 18.662 12.59 9.15zm-33.895-38.761c.679 2.7 2.289 5.162 2.562 7.973-3.745-1.678-7.85-11.244-10.9-14.925 1.719-2.091 4.162-3.457 6.313-5.083 2.856 3.366 5.983 6.476 9.088 9.614-.976.447.644 1.6.906 2.181.005.386.284.894.306 1.244-1.462-.66-2.38-2.174-3.687-3a.514.514 0 00-.517.854 59.576 59.576 0 018.558 14.33c-1.451-.749-12.021-16.582-12.629-13.188z" fill="#03438d"/><path data-name="Path 35" d="M279.951 30.405c-.369-.783.82-.988 1.093-.329.369.783-.821.988-1.093.329z" fill="#03438d"/><path data-name="Path 36" d="M279.975 33.43c-.357-.764.8-.966 1.069-.323.357.764-.799.965-1.069.323z" fill="#03438d"/><path data-name="Path 37" d="M282.39 36.886c-.353-.759.8-.957 1.065-.316.353.758-.799.957-1.065.316z" fill="#03438d"/><path data-name="Path 38" d="M286.404 36.871c-.357-.764.8-.966 1.069-.323.357.764-.799.965-1.069.323z" fill="#03438d"/><path data-name="Path 39" d="M287.741 33.077c-.333-.707.74-.893.988-.3.331.711-.742.897-.988.3z" fill="#03438d"/><path data-name="Path 40" d="M286.857 29.855c-.341-.738.771-.933 1.035-.308.341.737-.771.933-1.035.308z" fill="#03438d"/><path data-name="Path 41" d="M283.893 28.269c-.324-.7.731-.881.977-.294.324.696-.732.881-.977.294z" fill="#03438d"/><path data-name="Path 42" d="M288.446 47.569c-.345-.729.768-.925 1.024-.305.345.729-.769.925-1.024.305z" fill="#03438d"/><path data-name="Path 43" d="M290.632 45.949c-.335-.715.752-.905 1.006-.3.335.711-.751.904-1.006.3z" fill="#03438d"/><path data-name="Path 44" d="M293.777 43.535c-.341-.73.765-.923 1.024-.305.341.73-.766.923-1.024.305z" fill="#03438d"/><path data-name="Path 45" d="M296.212 42.103c-.325-.693.721-.873.965-.291.324.694-.721.874-.965.291z" fill="#03438d"/><path data-name="Path 46" d="M297.625 60.167c-.323-.694.726-.874.971-.292.322.694-.726.874-.971.292z" fill="#03438d"/><path data-name="Path 47" d="M300.101 59.326c-.335-.711.746-.9.994-.3.336.713-.745.901-.994.3z" fill="#03438d"/><path data-name="Path 48" d="M303.145 56.987c-.325-.7.731-.881.976-.294.325.696-.73.882-.976.294z" fill="#03438d"/><path data-name="Path 49" d="M305.012 54.869c-.327-.7.735-.885.982-.3.327.706-.735.89-.982.3z" fill="#03438d"/></g><path data-name="Path 50" d="M241.26 26.728c-.128-.759.9-.738.97-.054.13.758-.899.737-.97.054z" fill="#03438d"/><path data-name="Path 51" d="M241.539 29.799c-.135-.771.913-.749.982-.054.135.771-.913.749-.982.054z" fill="#03438d"/><path data-name="Path 52" d="M245.304 24.973c-.145-.834.992-.816 1.067-.061.145.835-.991.82-1.067.061z" fill="#03438d"/><path data-name="Path 53" d="M248.963 27.288c-.126-.733.869-.717.94-.055.125.734-.87.717-.94.055z" fill="#03438d"/><path data-name="Path 54" d="M245.531 27.958c-.157-1.072 1.214-1.024 1.34-.073.157 1.073-1.214 1.021-1.34.073z" fill="#03438d"/><path data-name="Path 55" d="M245.419 31.016c-.122-.687.819-.672.879-.048.122.686-.819.671-.879.048z" fill="#03438d"/><path data-name="Path 56" d="M137.116 12.128a4.6 4.6 0 01-.111-7.689c1.006-.692 2.53-1.64 3.678-.764 1.306-.333 2.389.868 3.126 1.793 2.609 4.171-2.408 9.788-6.693 6.66z" fill="#03438d"/><g data-name="Group 3"><path data-name="Path 57" d="M97.306 3.11c-8.86.418-17.234 4.53-25.6 7.273-.864.481-4.113 1.042-4.316 2.136l-.021-.011c0-.023.008-.046.013-.069-9.465-8.934-27.293-3.984-32.755 7.241a27.425 27.425 0 00-2.58 12 1.413 1.413 0 00-.241.238c-1.4 1.228-2.875 2.354-4.368 3.46-6.155 4.81-12.909 9.224-17.857 15.34-2.354 2.862-3.735 8.829 1.251 9.6 4.86.856 12.775-6.781 16.959-9.4a109.044 109.044 0 0110.331-6.829c6.277 5.208 16.01 7.247 23.449 3.379 7.421-3.235 13.424-10.72 13.173-19.027a110.533 110.533 0 0016.761-7.829c5.917-3.233 18.35-14.403 5.801-17.502zm-73.047 42.8a46.75 46.75 0 00-4.266 3.023c-1.442 1.176-2.82 2.617-4.63 3.211 3.582-6.676 10.905-9.787 16.853-13.915a1.474 1.474 0 00.757-1.057l.044.18a.545.545 0 00.134.163 6.014 6.014 0 001.151 2.2c.079-.042.159-.082.238-.123a97.822 97.822 0 00-10.281 6.322zm49.629-23.389a22.635 22.635 0 00-.716-2.119 34.856 34.856 0 00-2.038-3.479.724.724 0 00.259-.142c4.379-1.737 8.944-2.912 13.325-4.666 2.931-.874 7.819-4.64 10.633-2.632-3.231 6.505-13.236 10.015-21.463 13.041z" fill="#fff"/><path data-name="Path 58" d="M73.903 22.576c-3.2 1.289-6.408 2.563-9.612 3.848-5.661 2.268-11.313 4.569-16.886 7.034-4.346 1.923-8.647 3.948-12.865 6.141-.079.04-.159.08-.238.123a6.014 6.014 0 01-1.151-2.2 7.758 7.758 0 01-.28-1.979 13.973 13.973 0 01.226-2.611.48.48 0 00.18-.743.729.729 0 00-.065-.437.068.068 0 00-.008-.017.625.625 0 00-.423-.308h-.008a.707.707 0 00-.573.144.523.523 0 00-.071.061 1.1 1.1 0 00-.075.084v-.029a27.425 27.425 0 012.58-12c5.461-11.225 23.29-16.175 32.755-7.241a.558.558 0 00-.013.069.546.546 0 00.029.262 1.821 1.821 0 00.431 1.243c.036.05.075.1.113.146s.1.119.151.176l.126.138c.084.09.172.18.259.268l.262.266.088.088.169.178c.082.088.161.178.236.268.05.061.1.121.14.182s.084.123.123.186l.144.155.075.08a5.3 5.3 0 00.387.391l.086.077h.006l.063.052a1.375 1.375 0 00.469.259.808.808 0 00.151.027.45.45 0 00.1 0l.05-.006a.49.49 0 00.052-.01.48.48 0 00.05-.013 34.854 34.854 0 012.038 3.479c.274.688.51 1.4.716 2.119.004.011.007.033.013.05z" fill="#03438d"/><path data-name="Path 59" d="M61.575 47.471c-7.438 3.868-17.171 1.829-23.449-3.379a112.38 112.38 0 0111.965-6.118c4.435-1.969 8.971-3.724 13.53-5.421l.149-.054c3.643-1.356 7.3-2.676 10.932-4.036l.048-.017c.249 8.306-5.754 15.79-13.175 19.025z" fill="#03438d"/><path data-name="Path 60" d="M91.509 20.615a110.534 110.534 0 01-16.761 7.829l-.048.017c-3.622 1.395-7.285 2.7-10.932 4.036l-.149.054c-4.571 1.676-9.116 3.4-13.53 5.421l-.226.1a121.788 121.788 0 00-11.737 6.017 109.042 109.042 0 00-10.331 6.829c-4.184 2.617-12.1 10.254-16.959 9.4-4.986-.774-3.605-6.741-1.251-9.6 4.948-6.116 11.7-10.53 17.857-15.34 1.492-1.105 2.969-2.232 4.368-3.46a1.413 1.413 0 01.241-.238.54.54 0 01.075-.056.562.562 0 01.071-.046.982.982 0 01.573-.159h.008a.491.491 0 01.423.308.068.068 0 01.008.017 1.035 1.035 0 01.065.437.48.48 0 01-.18.743 23.8 23.8 0 00-.226 2.611 11.942 11.942 0 00.05 1.356.771.771 0 01.052.278 1.474 1.474 0 01-.757 1.057c-5.948 4.128-13.271 7.239-16.853 13.915 1.81-.594 3.188-2.034 4.63-3.211a46.75 46.75 0 014.266-3.023 97.822 97.822 0 0110.281-6.314c4.182-2.247 8.5-4.249 12.865-6.141 5.593-2.425 11.277-4.672 16.886-7.034q1.434-.6 2.862-1.22c1.925-.895 4.249-1.766 6.735-2.68 8.227-3.027 18.233-6.536 21.462-13.037-2.814-2.008-7.7 1.759-10.633 2.632-4.381 1.755-8.946 2.929-13.325 4.666a.724.724 0 01-.259.142.48.48 0 01-.05.013.491.491 0 01-.052.01l-.05.006a.451.451 0 01-.1 0 1.051 1.051 0 01-.151-.029 1.476 1.476 0 01-.469-.257l-.063-.052h-.006a2.981 2.981 0 00-.086-.077 5.3 5.3 0 01-.387-.391l-.075-.08-.144-.155a3.696 3.696 0 00-.263-.368 5.803 5.803 0 00-.236-.268c-.056-.059-.111-.119-.169-.178l-.088-.088-.262-.266c-.086-.088-.174-.178-.259-.268-.042-.046-.086-.092-.126-.138l-.151-.176c-.051-.059-.077-.1-.113-.146a1.82 1.82 0 01-.431-1.243.586.586 0 01-.008-.251c.2-1.094 3.452-1.655 4.316-2.136 8.362-2.743 16.736-6.856 25.6-7.273 12.548 3.099.115 14.269-5.798 17.505z" fill="#03438d"/><path data-name="Path 61" d="M34.308 29.782a22.018 22.018 0 00.077 5.025c.054.458.128 1.446-.6 1.2-.025.51.412 1.287-.128 1.619a.48.48 0 01-.506-.107.545.545 0 01-.134-.163l-.044-.18a30.305 30.305 0 01-.772-5.6v-.015c0-1.209.209-2.1.847-2.011a.475.475 0 01.414-.46c.507-.863 1.739.183.846.692z" fill="#03438d"/><path data-name="Path 62" d="M70.543 17.869a.661.661 0 01-.906-.306l-.119-.241c-.845.736-2.868-3.03-3.574-3.626-.736-.573-1.144-1.919.245-1.7a3.473 3.473 0 011.184.51l.021.011a8.8 8.8 0 012.176 2.492 15.12 15.12 0 011.159 1.916.854.854 0 01-.186.944z" fill="#03438d"/><path data-name="Path 63" d="M38.853 32.403a.422.422 0 01-.275-.633 14.97 14.97 0 011.752-8.778c.152-.31.362-.86.782-.546a.527.527 0 01.152.637 17.762 17.762 0 00-1.941 5.135c-.387.821.46 4.326-.476 4.182z" fill="#fff"/><path data-name="Path 64" d="M44.643 19.179c-.515-.253-.225-.842.112-1.119 4.334-4.223 11.845-5.092 17.406-3.111.478.172.4 1.091-.191.885-5.487-1.835-12.478-1.135-16.787 2.954.098.313-.277.491-.54.391z" fill="#fff"/><path data-name="Path 65" d="M49.55 21.46c-.471-.22-.339-1.375.244-.81a12.074 12.074 0 012.645-.921c.449-.088.706.694.243.828-1.105.094-2.063 1.103-3.132.903z" fill="#fff"/><path data-name="Path 66" d="M60.072 21.802a11.241 11.241 0 00-2.962-1.013c-.4-.016-.78-.625-.306-.822a6.392 6.392 0 01.773.015c.872.244 2.87.494 2.971 1.561a.342.342 0 01-.476.259z" fill="#fff"/><path data-name="Path 67" d="M58.013 42.461a14.9 14.9 0 01-2.564-.441c-.557.621-.995-.96-.195-.9 2.269.518 4.642.627 6.64-.706a.427.427 0 01.579.2c.673 1.092-3.706 2.052-4.46 1.847z" fill="#fff"/><path data-name="Path 68" d="M30.464 45.105a.178.178 0 01-.082-.021c-.372-.035-.5-.689-.079-.752-.018 0-.027 0-.042.006 2.271-1.069 4.065-3.176 6.279-4.448.65-.268 2.921-2.179 3.326-1.313a.407.407 0 01-.158.54 39.334 39.334 0 00-7.35 4.927c-.594.362-1.14 1.13-1.894 1.061z" fill="#fff"/><path data-name="Path 69" d="M45.748 36.719c-.441-.2-.214-1.141.281-.78 7.011-4 15.057-5.148 22.616-7.573.443-.161.77.588.346.8-3.687 1.653-7.882 1.868-11.679 3.159a86.352 86.352 0 00-8.965 3.429c-.822.299-1.711 1.199-2.599.965z" fill="#fff"/><path data-name="Path 70" d="M75.822 26.076c-.573.057-.671-.875-.01-.763a85.749 85.749 0 0018.463-10.376c.188-.143.446.015.546.185.576.9-5.224 3.986-6.1 4.675-4.161 2.284-8.374 4.958-12.941 6.279z" fill="#fff"/><path data-name="Path 71" d="M98.851 10.649c-.41-.81.05-1.832-.039-2.723a.38.38 0 01.406-.373c.934.242.165 2.038.191 2.693a.344.344 0 01-.558.403z" fill="#fff"/></g><path data-name="Path 72" d="M139.198 6.69c-.108-.635.756-.619.813-.043.11.635-.754.619-.813.043z" fill="#fff"/><path data-name="Path 73" d="M139.356 8.405c-.088-.521.618-.508.667-.036.088.521-.618.508-.667.036z" fill="#fff"/><path data-name="Path 74" d="M142.172 7.163c-.1-.591.7-.577.758-.043.103.591-.705.578-.758.043z" fill="#fff"/></g><path data-name="Path 75" d="M347.69 323.017a19.181 19.181 0 01-2.226-.833 60.713 60.713 0 01-.439 4.176c-.226 1.44-.421 2.887-.684 4.322-.188.849-.261 2.19-1.383 2.232-1.437-.354-1.383-6.375-1.621-7.844-.157-1.222.119-2.588-.247-3.743-6.6-8.155-13.675-15.909-20.094-24.205-1.571-1.756-2.894-3.693-4.329-5.553-2.266-2.849-4.546-5.7-6.578-8.724-1.454-2.563-3.26-4.921-4.517-7.6a45.067 45.067 0 01-3.464-9.419q-1.523-.049-3.047-.113a.686.686 0 000 .09 34.827 34.827 0 01-.7 6.931c-.946 6.164-2.375 12.241-3.762 18.313-.425 2.147-.64 4.258-1.008 6.4-.548 2.716-1.228 5.4-1.7 8.134-.36 2.042-.745 4.074-1.27 6.082a72.287 72.287 0 01-2.2 9.616c-.638 2.527-1.333 5.038-1.745 7.613-.172.5-.117 1.636-.46 2.105a.749.749 0 01.012.226c.075 1.55-.205 5.54-1.316 6.559-1.582.287-1.251-2.534-1.4-3.521-1.883 2.257-7.333 7.521-10.373 7.111-1.224-.521-1.008-1.448-.241-2.293a47.637 47.637 0 013.144-4.073 83.496 83.496 0 012.5-2.446c-.155-1.234.111-3.322 0-3.881 0-3.559.035-7.118-.117-10.676-.736-10.248-.532-20.545-.339-30.81.061-7.542.937-15.083 1.134-22.615 0-.191-.006-.475.019-.749q-2.138-.345-4.264-.768a41.665 41.665 0 01-6.865-1.935c-1.048-.425-.552-1.37-.253-2.207a1.227 1.227 0 01-.014-.192c0-.609.362-1.395.395-1.887.465-2 1-3.986 1.483-5.982 2.247-9.126 4.58-18.231 6.367-27.462.571-2.622 1.134-5.248 1.722-7.869a6.058 6.058 0 01-1.891.142c-3.35-.05-6.664-.5-10-.851-3.935-.657-6.314-1.052-6.2-5.674 0-.017 0-.038-.006-.056-2.239-.8-3.661-2.6-4.126-5.707-1.008-4.193-1.2-4.592 2.031-7.727a.329.329 0 01.061-.017c-.565-3.716-1.029-7.453-1.592-11.168-.09-.6.044-.923.241-1.054a.454.454 0 01.212-.161 20.762 20.762 0 014.78-.393c3.979-.272 7.959-.567 11.955-.46a1.757 1.757 0 011.9.952c.034-.075.069-.144.1-.207a1.274 1.274 0 01.088-.22 28.443 28.443 0 01.8-3.159c.383-1.655.715-3.323 1.121-4.973.85-2.7 1.291-5.5 2.161-8.193a65.615 65.615 0 012.377-8.112 16 16 0 017.1-8.331 20.934 20.934 0 013.743-.854 2.461 2.461 0 01.9.023.429.429 0 01.115.036 22.159 22.159 0 01.678-2.283c-.419-1.508-.41-3.138-.82-4.657-3.314-.929-7.03-2.481-8.3-5.961a39.339 39.339 0 01-1.1-5.369 6.641 6.641 0 01-1.818-.173c-1.484-.414-3.029-2.944-.826-3.5a6.813 6.813 0 002.571-1.91c.694-1.607.014-3.425-.113-5.09a13.992 13.992 0 01-.37-2.542c-.044-.029-.086-.059-.128-.088a14.741 14.741 0 01-2.326-3.122c-1.174-1.8-2.061-5.239-.762-7.139a4.288 4.288 0 012-1.569 3.267 3.267 0 014.663 1.134 26.265 26.265 0 014.427-.5 31.99 31.99 0 015.366-.188c4.329.215 8.99 1.816 11.566 5.486a11.651 11.651 0 012.09 6.034c.521-.272 1.008-.607 1.523-.9 4.609-3.044 12.947-4.17 14.319 2.818 2.548-1.26 6.061-.326 8 1.649 3.808 3.659 3.268 11.045.622 15.242a15.3 15.3 0 012.6 4.314c1.017 2.929 1.63 6.113.738 9.154-.966 3.678-4.416 7.31-8.469 6.768-5.04-.806-7.637-6.318-7.1-11.024-1.094.619-2.191-.377-2.733-1.266-2.025-3.209-1.32-9.756-.263-13.294-1.191.017-2.053-.958-2.875-1.7a13.019 13.019 0 01-3.465-7.2 2.74 2.74 0 01-2.281.768l.019.048a23.422 23.422 0 011.065 5.588 15.026 15.026 0 01-.169 5.908 4.3 4.3 0 01-3.523 2.481c.034.467.017.952.054 1.418.036 1.791-.008 3.58.019 5.371.021 1.661.036 3.322.057 4.98a1.8 1.8 0 00-.008.374 61.263 61.263 0 0115.173 9.156c8.264 7.241 7.371 19.213 7.331 29.216a92.866 92.866 0 01-1.766 11.587 40.716 40.716 0 01-5.638 15.129c-.68.964-1.368 1.944-2.134 2.85.615 1.937 1.115 3.908 1.678 5.86.91 3.113 2.08 6.149 2.789 9.319 1.684 5.528 3.483 11.034 4.795 16.671a254.346 254.346 0 012.51 8.752 37.559 37.559 0 01.829 3.915.475.475 0 01-.626.45 1.022 1.022 0 01-.651.492c-1.213.674-2.722.454-4.053.783-2.013.3-3.912.8-5.871 1.291a22.258 22.258 0 01-2.71.489 38.34 38.34 0 003.948 8.542c2.111 4.14 4.565 8.089 6.687 12.227q4.054 7.959 7.415 16.21c.954 2.559 2.41 4.913 3.27 7.515.986 2.521 1.979 5.092 3.182 7.511a25.378 25.378 0 013.5 3.954c.737.709.889 2.144-.576 1.675z" fill="#fff"/><path data-name="Path 76" d="M334.185 262.419a.475.475 0 01-.627.45 1.021 1.021 0 01-.651.492c-1.213.674-2.722.454-4.053.783-2.013.3-3.912.8-5.871 1.291a22.314 22.314 0 01-2.711.489c-.354.044-.709.08-1.065.109-1.818.157-3.653.161-5.48.174-3.393.031-6.783.238-10.174.2l-.4-.011c-.347-.01-.693-.021-1.04-.033q-1.523-.049-3.048-.113l-1.071-.048a169.8 169.8 0 01-17.656-1.661c-.364-.056-.73-.113-1.094-.174q-2.138-.345-4.264-.768a41.664 41.664 0 01-6.865-1.935c-1.048-.425-.552-1.37-.253-2.207a1.241 1.241 0 01-.013-.191c0-.609.362-1.395.395-1.887.465-2 1-3.986 1.483-5.982 2.247-9.126 4.58-18.231 6.367-27.462.571-2.622 1.134-5.248 1.722-7.869q.468-2.092.965-4.182c1.019-4.293 2.147-8.557 3.521-12.754a18.978 18.978 0 00.5-2.184 3.844 3.844 0 00.057-.429c.048-.421.119-.862.578-.954.485-.036 1.081.782.651 1.163l-.019.171a2.524 2.524 0 011.08.08 16.8 16.8 0 002.663.266c4.358-.24 5.6-.358 7.685 3.858 3-.178 5.977-.9 9-.845 1.059.115 2.787-.2 3.54.638 1.563 2 3.36 3.856 4.992 5.825.291.349.577.7.853 1.058a26.227 26.227 0 011.68 2.4 67.918 67.918 0 014.722 7.513c-.236-.781-.366-1.5-.107-1.87.469-.435 1.277.278.988.816.146.416.286.835.42 1.255.615 1.937 1.115 3.908 1.678 5.86.91 3.113 2.08 6.149 2.789 9.319 1.684 5.528 3.482 11.034 4.795 16.671a252.1 252.1 0 012.509 8.752 37.468 37.468 0 01.829 3.926z" fill="#03438d"/><path data-name="Path 77" d="M291.223 128.697c2.837-.832.153-3.743-2.313-2.254a3.773 3.773 0 00-.914.789c-.008.569.608.978 1.329 1.222a4.51 4.51 0 001.898.243zm2.048-1.781c.435 1.427-.4 3.075-2.736 2.951-1.647-.036-4.616-1.656-3.14-3.533a4.026 4.026 0 012.192-1.319 3.688 3.688 0 01.968-.081l.111.007a3.558 3.558 0 01.567.1 3.05 3.05 0 01.9.387 2.794 2.794 0 01.581.5 2.679 2.679 0 01.557.988z" fill="#03438d"/><path data-name="Path 78" d="M289.782 127.344a.954.954 0 01-.457 1.108 1.033 1.033 0 01-1.2-.2c-.534-.363-.842-1.732.042-1.79a.968.968 0 01.747-.025 1.4 1.4 0 01.868.907z" fill="#03438d"/><path data-name="Path 79" d="M291.735 121.671c.754.237 3.159 1.158 2.847 2.148a.431.431 0 01-.522.281 11.715 11.715 0 00-2.181-1.232 7.4 7.4 0 00-5.057.384c-.546.455-1.162-.633-.571-.965a8.5 8.5 0 015.484-.616z" fill="#03438d"/><path data-name="Path 80" d="M290.774 123.643c.307.29.111.672-.061.974a1.068 1.068 0 00-.159.33c-.113.339-.189.74-.546.732a.527.527 0 01-.419-.388.554.554 0 01-.022-.145v.043c0-.054.007-.107.014-.161a2.63 2.63 0 01.682-1.474.4.4 0 01.511.089z" fill="#03438d"/><path data-name="Path 81" d="M291.381 125.577c-.344-.339-.091-.774.172-1.069.208-.3.573-.765.932-.388.368.362.02.8-.219 1.12-.184.313-.545.704-.885.337z" fill="#03438d"/><path data-name="Path 82" d="M293.482 125.193c.455-.277.931.452.626.825-.227.282-.5.519-.752.782a.494.494 0 01-.085.122.442.442 0 01-.717-.122.771.771 0 01.158-.873 7.69 7.69 0 01.77-.734z" fill="#03438d"/><path data-name="Path 83" d="M290.087 135.691c.54.588-.306 1.082-.693 1.452-.3.244-.614.584-1.029.577-.6-.113-.866-.8-1.193-1.248-.159-.223-.37-.455-.3-.75.482-1.008 1.164.55 1.491.924a8.2 8.2 0 001.038-.887.42.42 0 01.686-.068z" fill="#03438d"/><path data-name="Path 84" d="M288.773 131.902c.043.286-.26.46-.437.6-.224.127-.362.447-.647.424a.546.546 0 01-.444-.509c-.017-.475.487-.766.831-1.007.328-.199.694.153.697.492z" fill="#03438d"/><path data-name="Path 85" d="M289.908 131.461c.461-.263.9.477.548.82-.29.312-.644.561-.934.871a.349.349 0 01-.315.136c-1.13-.42.163-1.478.701-1.827z" fill="#03438d"/><path data-name="Path 86" d="M291.846 131.789c.492-.385 1.045.455.645.848a5.817 5.817 0 01-1 .823l.032-.026a.352.352 0 01-.054.042l.018-.011-.014.011-.052.028.022-.013a.372.372 0 01-.321.009c-.911-.577.305-1.268.724-1.711z" fill="#03438d"/><path data-name="Path 87" d="M296.274 197.588c-.049-.3.109-.7.465-.7a.735.735 0 01.69.64c.049.3-.109.7-.465.7a.735.735 0 01-.69-.64z" fill="#03438d"/><path data-name="Path 88" d="M260.101 190.168a3.574 3.574 0 01-.389-2.639.494.494 0 01.852.034 10.938 10.938 0 01.362 2.064.515.515 0 01-.825.541z" fill="#03438d"/><path data-name="Path 89" d="M337.556 142.07a15.3 15.3 0 00-2.6-4.314c2.645-4.2 3.186-11.584-.622-15.242-1.943-1.975-5.456-2.91-8-1.649-1.371-6.988-9.71-5.862-14.319-2.818-.515.3-1 .632-1.523.9a11.651 11.651 0 00-2.09-6.034c-2.576-3.67-7.237-5.272-11.566-5.486a31.99 31.99 0 00-5.366.188 26.265 26.265 0 00-4.427.5 3.267 3.267 0 00-4.663-1.134 4.288 4.288 0 00-2 1.569c-1.3 1.9-.412 5.337.762 7.139a14.741 14.741 0 002.326 3.122c.042.029.084.059.128.088a13.992 13.992 0 00.37 2.542c.126 1.665.807 3.482.113 5.09a6.813 6.813 0 01-2.571 1.91c-2.2.559-.659 3.09.826 3.5a6.641 6.641 0 001.818.173 39.339 39.339 0 001.1 5.369c1.266 3.481 4.982 5.032 8.3 5.961.41 1.519.4 3.149.82 4.657a22.159 22.159 0 00-.678 2.283.429.429 0 00-.115-.036 2.461 2.461 0 00-.9-.023 20.934 20.934 0 00-3.743.854 16 16 0 00-7.1 8.331 65.615 65.615 0 00-2.377 8.112c-.87 2.693-1.31 5.492-2.161 8.193-.406 1.649-.738 3.318-1.121 4.973a28.443 28.443 0 00-.8 3.159 1.274 1.274 0 00-.088.22 8.862 8.862 0 01-.1.207 1.757 1.757 0 00-1.9-.952c-4-.107-7.977.188-11.955.46a20.762 20.762 0 00-4.78.393.454.454 0 00-.212.161c-.2.13-.331.456-.241 1.054.563 3.714 1.027 7.452 1.592 11.168a.329.329 0 00-.061.017c-3.232 3.136-3.038 3.534-2.031 7.727.465 3.105 1.887 4.906 4.126 5.707 0 .017 0 .038.006.056-.111 4.622 2.268 5.017 6.2 5.674 3.331.351 6.645.8 10 .851a6.058 6.058 0 001.891-.142.947.947 0 00.291-.194 3.4 3.4 0 00.751-1.718c.289-.356.031-1.075.019-1.521-.033-.249-.065-.5-.1-.749-.078-.6-.149-1.2-.218-1.793-.3-3.785-.774-7.559-1.172-11.338a1.964 1.964 0 00.6-.479 20.705 20.705 0 004.567-3.5 2.625 2.625 0 01-.077.557.852.852 0 00.383 1.182.725.725 0 00.115.031c3.473 1.234 7.164 1.531 10.8 1.906.646 2.743 1.458 5.448 2.358 8.126a33.052 33.052 0 006.486 11.911c2.008 2.019 5.08 4.069 8.007 4.057a16.378 16.378 0 008.214-2.155 12.685 12.685 0 002.739-2.5c.766-.906 1.454-1.887 2.134-2.85a40.716 40.716 0 005.638-15.129 92.866 92.866 0 001.766-11.587c.04-10 .933-21.976-7.331-29.216a61.263 61.263 0 00-15.173-9.156 1.8 1.8 0 01.008-.374c-.021-1.659-.036-3.32-.057-4.98-.027-1.791.017-3.58-.019-5.371-.036-.466-.019-.95-.054-1.418a4.3 4.3 0 003.523-2.481 15.026 15.026 0 00.169-5.908 23.422 23.422 0 00-1.065-5.588l-.019-.048a2.74 2.74 0 002.281-.768 13.019 13.019 0 003.465 7.2c.822.738 1.684 1.713 2.875 1.7-1.057 3.538-1.762 10.086.263 13.294.542.889 1.64 1.885 2.733 1.266-.532 4.707 2.065 10.218 7.1 11.024 4.053.542 7.5-3.09 8.469-6.768.897-3.03.28-6.214-.737-9.143zm-78.23 66.622c-2.115-1-2.465-3.423-2.887-5.479-.255-1.056-.72-2.142-.216-3.2a16.913 16.913 0 011.667-2.036l.126.785a.559.559 0 00-.4.6c.071 1.061 1.328.713 2.046.877 1.667.615 3.764.238 5.2 1.337-.113 1.262-1.628 1.218-2.584 1.2a9.415 9.415 0 01-2.605-.435c-.531.071-.486.828-.084 1.05a3.25 3.25 0 00.743.282 25.767 25.767 0 014.335 1.364.783.783 0 01.326 1.27c-.872.573-2.745.144-3.718-.142a12.426 12.426 0 00-1.7-.416c-.533-.029-.565.715-.207.969a2.233 2.233 0 00.554.285c.713.314 5.228 1.257 4.72 2.207-.452.71-4.588-.098-5.317-.518zm18.439 5.2c-.188.381-.019 1.107-.387 1.4-.044.025-.084.054-.125.08-3.743-.092-7.482-.58-11.216-.891-1.678-.237-3.632-.341-4.913-1.575a10.753 10.753 0 01-.391-2.508 11.958 11.958 0 002.917.205 1.616 1.616 0 001.17-3 1.726 1.726 0 001.314-1.875 2.25 2.25 0 00-1.768-2.021 1.934 1.934 0 00.3-3.655c-1.607-.8-3.41-.692-5.128-1.2-.14-.012-.316-.044-.5-.075-.105-.958-.412-1.9-.462-2.87-.4-3.513-.99-7-1.486-10.5a.5.5 0 00.082-.075c1.879-.205 3.774-.128 5.662-.174 3.776-.274 7.611-.5 11.381-.452a66.966 66.966 0 011.628 11.616c.255 2.965.74 5.915 1.069 8.875.184 2.915.489 5.807.853 8.696zm17.4-13.589a71.24 71.24 0 01-1.142-5.2 2.1 2.1 0 00.883-.667c1.1-1.084 2.134-2.236 3.283-3.27a40.641 40.641 0 003.412-3.31 46.269 46.269 0 013.563 4.1 22 22 0 011.605 2.077c-3.841 2.1-7.762 4.1-11.585 6.27zm.218-32.544c-.038-1.827-.226-3.64-.393-5.457-.115-.588-.038-3.3-.617-4.038 1.529-1.613 3.065-3.214 4.515-4.913a32.554 32.554 0 012.709 4.994c.086.144.171.289.255.433-.2.193-.377.456-.527.617-.628.764-1.262 1.525-1.839 2.331a49.274 49.274 0 00-4.096 6.035zm-1.674-25.427c-.68-.2-1.366-.383-2.032-.624-3.833-1.408-5.666-3.2-6.122-7.362-.144-.877-.35-1.743-.511-2.618a.735.735 0 00-.3-.753.4.4 0 00-.437-.017c-1.071 0-2.559 0-2.927-1.211a7.1 7.1 0 002.337-1.32 3.431 3.431 0 001.6-2.446 20.7 20.7 0 00-.736-6.4 3.746 3.746 0 001.466.573c1.061.2 1.532-.937 1.517-1.816 0-.119 0-.276-.006-.454a6.8 6.8 0 00.69.7 8.379 8.379 0 003.342 2.277 1.744 1.744 0 002.142-.555 2.065 2.065 0 00.155-1.216c.082.105.167.211.253.314.9 1.2 2.027 2.529 3.67 2.425-.027.812.155 1.613.15 2.427.065.707-.023 1.439.033 2.147a.625.625 0 00.228.875.459.459 0 00.665.031 7.409 7.409 0 012.078.086 3.977 3.977 0 011.5.736.927.927 0 01.425 1.151 2.324 2.324 0 01-.7 1.481c-1.13.111-.243 1.762-.046 2.381 1.042 2.174 2.87 4.354 5.26 5.025 0 .274.036.554.027.816.013.577.011 1.153.01 1.73-.017 2.375.059 4.749.113 7.122v.036a43.5 43.5 0 00-4.582-.149c-2.536-.016-5.082.079-7.614.153-.042-.354-.155-.707-.188-1.063a27.5 27.5 0 00-.64-3.814.941.941 0 00-.815-.668zm1.456 6.674c.569-.015 1.142.029 1.714.015 3.561-.125 7.13-.165 10.681-.05.011.726.025 1.452.031 2.18a1.36 1.36 0 00.008.393c-.659 1.448-1.17 3.034-1.749 4.532a29.715 29.715 0 00-1.9 4.48c-.684-1.584-1.684-3.007-2.295-4.62a14.089 14.089 0 00-1.6-2.718c-.4-.419-.663-1.441-1.37-1.287-1.873 2.26-4.026 4.325-5.977 6.538a79.191 79.191 0 012.462-9.463zm-3.86 36.651a.6.6 0 00-.186-1.046c-1.147.042-2.218.806-3.392.76-.414-.31.126-.81.337-1.1a5.807 5.807 0 013.312-1.46c2.956-.956 4.2.06 6.49 1.762a30.761 30.761 0 012.917 2.469c-.55.565-1.057 1.169-1.621 1.722-1.879 1.607-3.6 3.37-5.343 5.122a57.671 57.671 0 01-.351-2.626c.011-.609-.615-1.09-1.059-.471a4.846 4.846 0 01-2.81 1.395c-2.774.517-.69-1.718.316-2.469a16.439 16.439 0 011.7-1.207c.236-.167.571-.255.649-.565.1-.362-.278-.841-.657-.678v-.004a9.409 9.409 0 01-3.484 1.555c-.318-.033-1.632.312-1.582-.115.869-1.762 3.154-2.189 4.769-3.04zm-8.76 10.21a.327.327 0 01.147-.09.441.441 0 00-.142.09z" fill="#03438d"/><path data-name="Path 90" d="M279.767 281.458c-.289 8.358-.454 16.706-.31 25.054-.054 7.159.8 14.286.536 21.454 0 1.446 0 2.893.01 4.341 0 .155.013.347 0 .531-.016.343-.107.659-.513.653-.324.023-.483-.362-.552-.927-.155-1.234.111-3.322 0-3.881 0-3.559.035-7.118-.117-10.676-.736-10.248-.532-20.545-.339-30.81.061-7.542.937-15.083 1.134-22.615 0-.192-.006-.475.019-.749.052-.532.224-1.023.814-.691a1.454 1.454 0 01.28.866c.029.565-.111 1.2-.034 1.722-.231 5.252-.444 10.492-.928 15.728z" fill="#03438d"/><path data-name="Path 91" d="M285.291 337.786c-1.582.287-1.251-2.534-1.4-3.521-1.883 2.257-7.333 7.521-10.373 7.111-1.224-.521-1.008-1.448-.241-2.293a47.672 47.672 0 013.144-4.073 83.496 83.496 0 012.5-2.446l.324-.3c.385-.15.68.209.741.578a.513.513 0 01-.364.655 41.847 41.847 0 00-3.749 4 35.762 35.762 0 00-1.491 1.948c-.207.285-.406.575-.6.868 3.13-.7 6.252-3.542 8.526-5.9l.387-.4c0-.006.01-.01.014-.015.395-.45.783-.908 1.151-1.379 1.239-.617 1.01 2.1 1.1 3.253a1.768 1.768 0 00.057.366l.044-.144a10.582 10.582 0 00.395-1.753v-.009a15.022 15.022 0 00.125-3.59.527.527 0 010-.056.734.734 0 01.063-.13c.3-.538.862-.069.954.45a.753.753 0 01.012.226c.071 1.545-.208 5.535-1.319 6.554z" fill="#03438d"/><path data-name="Path 92" d="M299.069 265.806a34.815 34.815 0 01-.7 6.93c-.946 6.164-2.375 12.241-3.762 18.313-.425 2.147-.64 4.258-1.008 6.4-.548 2.716-1.228 5.4-1.7 8.134-.36 2.042-.745 4.074-1.27 6.082a72.288 72.288 0 01-2.2 9.616c-.638 2.527-1.333 5.038-1.745 7.613-.172.5-.117 1.636-.46 2.105a.48.48 0 01-.291.2.581.581 0 01-.266-.01.785.785 0 01-.372-.479.89.89 0 01-.025-.159c-.052-.594.381-1.358.4-1.917a45.043 45.043 0 011.218-5.718c.581-2.6 1.527-5.115 1.964-7.754.393-2.021.72-4.055 1.253-6.047.73-3.362 1.178-6.783 2.029-10.118.732-3.138 1-6.358 1.611-9.515 1.427-5.607 2.444-11.264 3.492-16.951a38.987 38.987 0 00.764-6.028 6.354 6.354 0 000-.833 1.684 1.684 0 01.22-1.065.586.586 0 01.908.395c.006.207-.057.5-.057.718a.71.71 0 00-.003.088z" fill="#03438d"/><path data-name="Path 93" d="M345.532 321.362a3.042 3.042 0 01-.042.473l-.023.353a60.713 60.713 0 01-.439 4.176c-.226 1.44-.421 2.887-.684 4.322-.188.849-.26 2.19-1.383 2.232-1.437-.354-1.383-6.375-1.621-7.844-.157-1.222.119-2.588-.247-3.743-6.6-8.155-13.675-15.909-20.094-24.205-1.571-1.757-2.894-3.693-4.329-5.553-2.266-2.849-4.546-5.7-6.578-8.723-1.454-2.563-3.26-4.921-4.517-7.6a45.055 45.055 0 01-3.464-9.419q-.155-.615-.289-1.232c-.19-.714.617-1.187.939-.337.113.538.245 1.073.391 1.6.324 1.163.715 2.306 1.117 3.442a39.53 39.53 0 004.914 9.994 48.512 48.512 0 003.6 5.456c3.772 5.048 7.7 9.974 11.593 14.924 2.916 3.745 6.162 7.212 9.155 10.9 1.946 2.377 3.873 4.553 5.814 6.877.747 1.19 3.034 3.153 2.99 4.381.013.99.029 1.989.061 2.985a40.207 40.207 0 00.7 6.735 68.824 68.824 0 001.134-7.034q.1-.9.171-1.8c.142-.634-.427-2.249.529-2.278a.749.749 0 01.238.079.906.906 0 01.364.839z" fill="#03438d"/><path data-name="Path 94" d="M347.694 323.018a19.159 19.159 0 01-2.226-.833 2.428 2.428 0 01-.8-.6.77.77 0 01-.17-.642c.167-.395.4-.487.667-.429.519.111 1.159.784 1.663.908a.721.721 0 00.082.015 1.427 1.427 0 00-.065-.088c-.9-1.251-2.122-2.255-3.036-3.473q-.2-.357-.374-.718a26.144 26.144 0 01-1.117-2.726c-.586-1.475-1.314-2.891-1.791-4.408a38.714 38.714 0 00-2.406-5.274 100.334 100.334 0 00-4.017-9.34 153.217 153.217 0 00-9.088-17.606c-1.781-3.7-4.228-7.065-5.362-11.066a9.638 9.638 0 00-.45-1.243 2.628 2.628 0 01-.234-1.423c.584-.69 1.008.329 1.132.845l.167.469a38.335 38.335 0 003.948 8.542c2.111 4.14 4.565 8.09 6.687 12.227q4.054 7.959 7.415 16.21c.954 2.559 2.41 4.913 3.27 7.515.987 2.521 1.979 5.091 3.182 7.511a25.375 25.375 0 013.5 3.954c.733.706.884 2.141-.577 1.673z" fill="#03438d"/><path data-name="Path 95" d="M343.031 332.567c-.968-.188-.393-2.427-.474-3.2-.9-.308-.377-1.671-.412-2.391.16-1.785.468-3.494.635-5.262.2-.868.187-4.7.954-4.848.447-.088.714.42.695.808a.569.569 0 00-.008-.135.834.834 0 01.008.135.45.45 0 01-.122.288 5.374 5.374 0 00-.036.174.447.447 0 01.3.022.677.677 0 01.383.658c.426.009.572.526.916.713.536.31 1.9.895.989 1.6.024 1.369-1.7.109-2.03-.456a68.432 68.432 0 00-1.06 8.972c-.152.664.135 2.884-.738 2.922z" fill="#03438d"/><path data-name="Path 96" d="M274.939 339.552a.647.647 0 01-.5-.989 36.255 36.255 0 013.746-2.572 60.568 60.568 0 017.063-5.033c.715-.7 1.247.145 1.07.889-.121 1.056-.291 2.106-.353 3.168-.062.407.032.906-.223 1.249-.521.381-.876-.361-.848-.808a45.413 45.413 0 00-.518-2.584c-2.118 1.223-3.806 3.03-5.859 4.348-1.271.64-2.301 1.748-3.578 2.332z" fill="#03438d"/><path data-name="Path 97" d="M273.572 340.502c-.3-.713.508-1.126 1.119-1.064.992-.649 1.981-1.309 2.953-1.987a45.023 45.023 0 014.109-3.05c.482-.388 1.055.4.719.835-.378.427-.933.657-1.349 1.05-1.535 1.078-2.916 2.342-4.5 3.35-.806.429-2.301 2.057-3.051.866z" fill="#03438d"/><path data-name="Path 98" d="M311.988 204.231c-.2-.534-.467-1.036-.68-1.564-.213-.556-.354-1.152-.553-1.708a40.016 40.016 0 00-1.259-2.855c-.518-.9-.885-1.887-1.457-2.761a7.432 7.432 0 01-.585-.908c-.084-.22.105-.538.345-.448a.4.4 0 01.391.389 14.173 14.173 0 011.367 2.27 26.505 26.505 0 012.357 5.66c.161.419.365.819.542 1.232.123.279.354.717.005.924a.368.368 0 01-.473-.231z" fill="#fff"/><path data-name="Path 99" d="M312.2 204.346c-.426-.2-.232-.771-.2-1.118.219-1.605.4-3.216.6-4.823.239-1.7.547-3.393.838-5.087.3-1.669.526-3.349.938-5 .447-2.033.754-4.092 1.3-6.1.434-2.368 1.11-4.681 1.752-7 .219-.794.433-1.587.692-2.368a9.5 9.5 0 01.657-1.811c.336-.332.787.322.462.586-.534 1.676-.987 3.376-1.447 5.073-.4 1.615-.9 3.207-1.2 4.844s-.781 3.268-1.034 4.931c-.225 1.224-.511 2.436-.775 3.652l-1.037 5.948c-.417 2.37-.714 4.693-1.017 7.069-.11.409.127 1.345-.529 1.204z" fill="#fff"/><path data-name="Path 100" d="M294.109 179.651a.424.424 0 01-.289-.45c.044-.381.1-.76.148-1.141.135-1.111.28-2.221.343-3.339.106-1.561.23-3.121.348-4.682.016-.29.055-.717.433-.716a.214.214 0 00-.1.039c.321-.2.595.361.322.558-.166 2.3-.279 4.614-.528 6.911-.084.726-.192 1.449-.28 2.175-.032.252-.025.714-.397.645z" fill="#fff"/><path data-name="Path 101" d="M292.125 165.457a26.464 26.464 0 01-.99-2.641l.01.028v.007l-.015-.041-.049-.138v.012c-.327-.822-.605-1.668-.893-2.5l.013.037q-.407-1.118-.775-2.247a6.463 6.463 0 01-.474-2.034c.046-.252.293-.37.5-.482q.727-.383 1.454-.763c-.711-.139-2.637-.218-2.4-1.3a3.493 3.493 0 01.908-.87 32.253 32.253 0 012.456-1.766c.26-.215.8-.119.821.266.005.129-.079.293-.224.292-.377 0-.654.375-.973.552a27.435 27.435 0 00-2.282 1.73 15.471 15.471 0 002.874.555.34.34 0 01.27.182.364.364 0 01-.2.557c-.875.408-1.726.87-2.568 1.343a36.582 36.582 0 001.3 3.912c.272.8.547 1.607.856 2.4.219.618.4 1.249.656 1.855a3.478 3.478 0 01.282.833c.068.376-.357.569-.557.221z" fill="#fff"/><path data-name="Path 102" d="M299.49 168.043c-.319-.578.695-.887 1.027-1.207.628-.458 1.255-.919 1.92-1.323 1.2-.723 2.384-1.624 3.582-2.328a27.519 27.519 0 003.992-2.847c-.59-.805-2.059-1.462-2.1-2.535.07-.64.905-.5 1.348-.641a17.086 17.086 0 002.84-.745c-.749-1.338-1.779-2.489-2.617-3.763-.151-.257.01-.679.352-.549a.418.418 0 01.274.306c.082.1.165.2.243.306.592.8 1.254 1.555 1.781 2.4a3.768 3.768 0 01.687 1.482c.042.3-.194.483-.464.546a24.859 24.859 0 01-3.724.884c.562.862 3.047 1.98 1.724 3.108a62.268 62.268 0 01-5.959 4.033c-.93.659-1.935 1.2-2.86 1.868l-1.2.865c-.246.191-.61.544-.846.14z" fill="#fff"/><path data-name="Path 103" d="M283.528 191.821c-.558-.2-.173-.971-.2-1.4.063-1.5.1-2.94.209-4.432.12-1.562.271-3.146.266-4.71.072-1.686.129-3.343.162-5.022a10.323 10.323 0 01-2.4-2.807 7.564 7.564 0 01-.4-3.766 6.2 6.2 0 011.517-3.347 17.514 17.514 0 012.149-2.421c.278-.317.678-.6.72-1.046a15.878 15.878 0 000-1.936c-.006-.228-.028-.555.2-.683a.271.271 0 01.312.07.4.4 0 01.112.3c-.01.634.072 1.3.044 1.927a2.393 2.393 0 01-.191 1.105 11.047 11.047 0 01-1.45 1.6 12.7 12.7 0 00-2.336 3.04 6.743 6.743 0 00-.167 4.628 4.644 4.644 0 001.166 1.62c.391.442.839.826 1.251 1.247.329.459.136 1.075.154 1.6-.015 1.795-.145 3.585-.158 5.379-.131 2.173-.375 4.37-.447 6.54a20.359 20.359 0 01-.142 2.2.314.314 0 01-.371.314z" fill="#fff"/><path data-name="Path 104" d="M313.355 208.049a7.222 7.222 0 01-.456-1.762c-.026-.229-.137-.489 0-.7.266-.3.556.082.568.368.142.655.286 1.253.417 1.892a.284.284 0 01-.529.202z" fill="#fff"/><path data-name="Path 105" d="M317.891 206.366c-1.244-.487-2.73-.309-3.863-1.084-.175-.162-.133-.562.153-.551.455.118.892.319 1.362.392.561.119 1.131.183 1.7.282.409.069 1.13.2.976.769a.279.279 0 01-.328.192z" fill="#fff"/><path data-name="Path 106" d="M315.357 201.811c-.244-.455.382-.669.7-.823.279-.117.564-.22.853-.312a.32.32 0 01.36.211.354.354 0 01-.123.456c-.254.11-.511.214-.768.317a6.579 6.579 0 00-.623.271.279.279 0 01-.399-.12z" fill="#fff"/><path data-name="Path 107" d="M323.363 180.661c-.648-.447-2.079-1-2.138-1.872.024-.392.535-.346.612 0a5.123 5.123 0 001.107.742c.354.225 1.053.485.831 1.015a.289.289 0 01-.412.115z" fill="#fff"/><path data-name="Path 108" d="M326.697 178.334a11.864 11.864 0 01-1.9-.09c-.263-.025-.583-.127-.583-.443 0-.274.2-.389.448-.315a6.468 6.468 0 00.775.04 14.142 14.142 0 011.97-.015.445.445 0 01.31.423c.013.543-.664.38-1.02.4z" fill="#fff"/><path data-name="Path 109" d="M314.807 174.366a12.632 12.632 0 00-1.534-.714c-.291-.174-.211-.725.179-.632.5.117 1.935.46 1.737 1.161a.288.288 0 01-.382.185z" fill="#fff"/><path data-name="Path 110" d="M305.281 179.226a17.618 17.618 0 01-2.018-.871 6.115 6.115 0 01-1.358-1.112c-.232-.2-.135-.59.343-.462a.258.258 0 01.224.259 5.872 5.872 0 001.44 1.028 17.892 17.892 0 002.049.774 7.258 7.258 0 001.895.081 6.769 6.769 0 001.871-.314c.379-.116.661.315.348.462a8.58 8.58 0 01-4.794.155z" fill="#fff"/><path data-name="Path 111" d="M326.943 131.326a.445.445 0 01-.14-.485 7.306 7.306 0 00.4-1.433c.1-.941.34-2.49-.353-3.226-.287-.016-.4-.46-.216-.651.528-.388 1.112.8 1.178 1.219a8.289 8.289 0 01.03 2.935c-.099.381-.261 2.05-.899 1.641z" fill="#fff"/><path data-name="Path 112" d="M328.972 131.723c-.28-.218-.1-.564-.027-.838.081-.3.147-.609.2-.918a6.99 6.99 0 00-.232-3.509c-.251-.206-.1-.752.265-.564a2.093 2.093 0 01.567 1.247 10.04 10.04 0 01.053 3.077c-.086.372-.209 1.893-.826 1.505z" fill="#fff"/><path data-name="Path 113" d="M331.052 132.587c-.4-.334.022-.805.1-1.194a5.107 5.107 0 00.165-1.456 4.678 4.678 0 00-.119-.943c-.037-.176-.081-.427.09-.552.258-.181.582.15.477.422a5.794 5.794 0 01.093 2.731c-.098.357-.265 1.332-.806.992z" fill="#fff"/><path data-name="Path 114" d="M327.294 146.782a.786.786 0 01-.493-.818c.066-.187.232-.492.473-.358a.361.361 0 01.143.425 1.726 1.726 0 001.932-.5 5.414 5.414 0 00.91-1.061c.071-.17.2-.376.416-.281.8.474-.694 1.8-1.1 2.151a2.111 2.111 0 01-2.281.442z" fill="#fff"/><path data-name="Path 115" d="M328.43 149.498c-.342-.086-.617-.663-.2-.83a.282.282 0 01.257.077c.575.247 1.253-.186 1.7-.543a2.919 2.919 0 00.682-.905.288.288 0 01.378-.229c.5.279.056.916-.155 1.258a2.558 2.558 0 01-2.662 1.172z" fill="#fff"/><path data-name="Path 116" d="M288.797 114.31c-.229-.612-.4-1.195-.674-1.781-.384-.056-.393-.846.041-.81.565.14.991 1.823 1.211 2.366.131.43-.392.653-.578.225z" fill="#fff"/><path data-name="Path 117" d="M291.425 114.769a.376.376 0 01-.221-.175c-.257-.395-.481-.811-.711-1.221-.249-.519-.682-1.051-.609-1.654.016-.149.127-.294.294-.254.33.1.184.468.349.706.353.708.8 1.364 1.178 2.056.138.216.024.608-.28.542z" fill="#fff"/><path data-name="Path 118" d="M286.68 114.382a4.488 4.488 0 01-.916-2.5c.132-.482.73-.141.56.256a7.406 7.406 0 00.836 1.822c.218.358-.175.795-.48.422z" fill="#fff"/><path data-name="Path 119" d="M301.249 119.781c-.311-.51-.631-1.013-.932-1.529a1.334 1.334 0 01-.268-.884c.05-.379.5-.273.517.062.332.726.847 1.27 1.2 1.97a.408.408 0 01-.07.519.316.316 0 01-.447-.138z" fill="#fff"/><path data-name="Path 120" d="M303.583 119.591a19.24 19.24 0 01-1.008-1.795 2.591 2.591 0 01-.311-.695c-.009-.137.094-.322.248-.3.245.01.347.3.469.481.368.627.718 1.263 1.085 1.89.221.348-.183.795-.483.419z" fill="#fff"/><path data-name="Path 121" d="M305.981 119.57a.422.422 0 01-.248-.2 6.442 6.442 0 01-.561-1.21c-.092-.328-.634-1.64.014-1.6.2.048.25.27.27.448a7.457 7.457 0 00.517 1.34c.107.2.218.4.324.605.155.248.028.691-.316.617z" fill="#fff"/><path data-name="Path 122" d="M287.354 250.91a14.171 14.171 0 01-2.178-1.708c-.254-.315-.931-.668-.671-1.137a.28.28 0 01.448.009 20 20 0 00.72.69c.614.556 1.278 1.051 1.935 1.555.29.197.127.791-.254.591z" fill="#fff"/><path data-name="Path 123" d="M292.987 251.208a25.074 25.074 0 01-3.148-2.127 28.41 28.41 0 01-3.431-3.016 4.3 4.3 0 01-.934-1.167c-.181-.608.675-.671.689-.09a30.942 30.942 0 003.585 3.2c1.128.881 2.341 1.639 3.487 2.493.303.209.177.869-.248.707z" fill="#fff"/><path data-name="Path 124" d="M294.116 247.588a30.004 30.004 0 01-2.373-1.682c-.282-.251-.708-.478-.742-.891a.318.318 0 01.625-.1c.935.662 1.87 1.322 2.756 2.05.3.209.127.833-.266.623z" fill="#fff"/><g data-name="Group 5"><path data-name="Path 125" d="M33.695 221.955a7.078 7.078 0 003.337-.8 3.445 3.445 0 01-.034.55 46.965 46.965 0 00.479 8.39c.188 1.651.119 3.161.2 4.781.159 2.433.546 4.846.7 7.281.54 6.505.893 13.02 1.527 19.518.462 4.521 1.165 9.018 1.559 13.549.456 5.027 1.259 10.009 1.649 15.041.341 2.31.444 4.647.906 6.94.094.41.08 1.176.46 1.358a.489.489 0 00.092.247c.429.881 3.808.546 4.795.6 1.448.1 1.494-.707 1.475-1.735 2.331 1.868 5.693 2.423 8.586 2.425 2.213-.138 4.571-.659 6.111-2.377.42-.521 1.18-1.333.692-2.011a1.862 1.862 0 00-1.36-.676 20.959 20.959 0 00-2.2-.387c-1.157-.241-2.276-.653-3.454-.807a7.079 7.079 0 01-2.586-.6 49.137 49.137 0 01-1.077-6.2c-.243-2.084-.4-4.182-.565-6.27-1.213-8.515-1.153-17.139-2-25.692-.956-9.532-.87-19.1-.967-28.669-.174-2.816-.088-5.636-.157-8.453a71.147 71.147 0 01-.362-9.959 8.828 8.828 0 013.358-.51c-.019 1.611-.184 3.222-.113 4.837.228 2.461.508 4.919.623 7.39.414 8.337 1.2 16.648 1.563 24.987-.086 2.592.3 5.147.435 7.726.121 3.576.316 7.147.435 10.723.017 5.494.965 10.932 1.121 16.411.111 2.35.776 4.645.751 7 .006.95.019 1.9.056 2.849.044.395-.113 1.05.266 1.228.255.722 1.971.569 2.594.854 2.45.6 1.923-.661 1.971-2.464a8.759 8.759 0 006.122 3.05 10.322 10.322 0 008.461-3.383c.906-1.611-2.281-1.54-3.17-2-.829-.3-1.678-.544-2.488-.854a6.4 6.4 0 00-1.082-.433 27.185 27.185 0 01-.442-2.8c-.385-3.088-.544-6.187-.856-9.279-.722-20.135-.034-40.315-.387-60.462a11.929 11.929 0 01.09-1.523 17.99 17.99 0 001.69-.021c1.132.021 2.956-.513 2.525-1.971-.029-1.153-.017-2.308-.021-3.463a345.07 345.07 0 00-.092-5.289 16.1 16.1 0 001.96 4.178c1.473 2.281 3.668 4.816 6.643 4.594 4.569-.04 7.668-2.442 9.8-6.346 1.105-2.257 1.32-4.825 1.665-7.283q.362-3.718.487-7.457c.061-6.343.4-12.7.146-19.041.046-2.548-.406-5.036-.481-7.574a50.268 50.268 0 01-.08-3.883v-.18c.151-.55.034-1.335.134-1.787.013-1.759.1-3.509.176-5.266.046-.555.067-1.115.163-1.665a9.938 9.938 0 00.542-1.728c.264-1.709-.793-2.379-2.222-1.393a2.047 2.047 0 00-.86-2.1c-.672-.253-1.4.193-2.038.393.159-1.586 1.684-4.264 1.124-5.549a1.1 1.1 0 00-1.6-.082.76.76 0 00-.082.192c-.027.029-.054.057-.08.09-1.762 1.611-2.255 4.04-3.044 6.2a23.312 23.312 0 00-1.055 5.854c-.439 3.364-.586 6.693-1.046 10.032-.751 5.394-1.119 10.833-1.437 16.265a327.421 327.421 0 00-.762-6.787c-.408-3.1-1.159-6.254-1.63-9.317-.527-3.8-1.069-7.7-2.7-11.208-1.644-3.634-4.069-3.935-7.526-5.1a28.216 28.216 0 01-3.379-.918 40.385 40.385 0 01-4.182-.751c.42-1.737.709-3.465 1.134-5.21 2.854-.644 6.354-.979 8.141-3.594a14.976 14.976 0 001.684-4.9 305.98 305.98 0 011.362-6.718c.036-.207.077-.412.119-.617a.74.74 0 00.577-.962.858.858 0 00-.274-.337c.142-.565.289-1.13.427-1.7a2.376 2.376 0 01.063-.278 3.781 3.781 0 001.373.073c1.029-.027 1.31-.613 1.193-1.28a4.906 4.906 0 001.835.418c2.621.266 2.772-2.2 1.291-3.76-1.667-2.011-4.082-3.232-6.392-4.36 2.393-1.912-4.6-4.191-5.873-4.7a17.2 17.2 0 00-8.869-.977 7.122 7.122 0 00-4.791 2.023.271.271 0 00-.065.015c-4.226.992-5.783 6.241-6.467 10.015a8.413 8.413 0 00-.2 1.975 2.356 2.356 0 00-2.473 2.289 3.667 3.667 0 001.766 3.747c.105.082.228.184.358.276-.8 3.994-1.354 8.032-2.067 12.047-.341 1.67-.5 3.371-.828 5.042-.138.031-.276.084-.4.115-1.789.322-3.5.925-5.268 1.347-5.293 2.053-11.285 2.067-16.2 5.111-2.709 1.4-4.132 4.072-4.933 6.908a42.793 42.793 0 00-1.184 11.289c-.28 6.708-.006 13.428.121 20.137a112.43 112.43 0 00.718 13.361c.575 5.074 1.339 10.361 4.046 14.779 2.203 3.895 5.318 7.663 10.224 7.396z" fill="#fff"/><path data-name="Path 126" d="M40.153 97.049c1.992-2.737.531-5.354-1.8-7.245-3.869-3.27-8.883-4.486-13.668-5.77a29.516 29.516 0 00-4.172-.835 50.855 50.855 0 00-6.982-.063 19.309 19.309 0 00-3.5.423c-.816.186-1.653.51-2.41.747a15.983 15.983 0 00-2.691 1A13.4 13.4 0 001.583 87.9a6.684 6.684 0 00-1.046 6.9 7.4 7.4 0 002.364 2.619 20.208 20.208 0 007.091 2.956c.875.234 1.762.421 2.649.611 2.762.615 5.494 1.372 8.293 1.828.9.146 1.812.207 2.72.289 1.421.138 2.827.42 4.243.584a44.045 44.045 0 006.687 3.2c1.111.293 2.159.755 3.241 1.128.556.165 1.128.253 1.686.4.09.209.328.193.506.147a.436.436 0 00.247-.439c-.023-.335-.41-.448-.642-.626-.569-.366-1.138-.73-1.7-1.111-1.883-1.306-3.749-2.634-5.689-3.854 2.829-1.523 5.814-2.994 7.92-5.483z" fill="#fff"/><path data-name="Path 127" d="M49.809 118.123a.835.835 0 00.159.341l.163.105a.615.615 0 00.126.826.44.44 0 00.105.048c.194.027.395.092.6.138a1.731 1.731 0 00.324.046c0 .021.008.042.01.063.213 1.3.328 3.871 1.471 3.651 1.772-.828 2.2-4.295 2.661-6.053.238-1.235.718-2.415.864-3.668 1.393 1.17 4.331 1.975 4.272-.745a.1.1 0 000-.023 10.532 10.532 0 003.54 2.207c1.757.412 1.814-1.015 1.2-2.247a80.6 80.6 0 008.743 4.722c.59.284 1.188.607 1.806.852a5.734 5.734 0 00.927.295 3.781 3.781 0 001.373.073c1.029-.027 1.31-.613 1.193-1.28a4.907 4.907 0 001.835.418c2.621.266 2.772-2.2 1.291-3.76-1.667-2.011-4.082-3.232-6.392-4.36 2.393-1.912-4.6-4.191-5.873-4.7a17.2 17.2 0 00-8.869-.977 7.122 7.122 0 00-4.791 2.023.271.271 0 00-.065.015c-4.226.992-5.783 6.241-6.467 10.015a8.413 8.413 0 00-.206 1.975z" fill="#03438d"/><path data-name="Path 128" d="M94.029 160.25c.579-.011.805-.944.239-1.156-2.274-.441-4.586-.75-6.847-1.256-.586-.133-1.646-.566-1.8.316-.042.261.089.626.4.642 2.648.492 5.331 1.021 8.008 1.454z" fill="#03438d"/><path data-name="Path 129" d="M.54 94.795a7.4 7.4 0 002.364 2.619 20.208 20.208 0 007.091 2.956c.875.234 1.762.421 2.649.611 2.762.615 5.494 1.372 8.293 1.828.9.146 1.812.207 2.72.289 1.421.138 2.827.42 4.243.584a44.045 44.045 0 006.687 3.2c1.111.293 2.159.755 3.241 1.128.556.165 1.128.253 1.686.4.09.209.328.193.506.147a.436.436 0 00.247-.439c-.023-.335-.41-.448-.642-.626-.569-.366-1.138-.73-1.7-1.111-1.883-1.306-3.749-2.634-5.689-3.854 2.822-1.519 5.806-2.99 7.915-5.479 1.992-2.737.531-5.354-1.8-7.245-3.869-3.27-8.883-4.486-13.668-5.77a29.516 29.516 0 00-4.172-.835 50.855 50.855 0 00-6.982-.063 19.309 19.309 0 00-3.5.423c-.816.186-1.653.51-2.41.747a15.983 15.983 0 00-2.691 1 13.4 13.4 0 00-3.347 2.594A6.684 6.684 0 00.54 94.795zm2.1-6.7a11.026 11.026 0 014.249-2.513c1.019-.308 2.015-.7 3.044-.967a20.81 20.81 0 013.709-.469 38.1 38.1 0 017.777.19 64.34 64.34 0 016.526 1.605c1.46.419 2.919.843 4.331 1.4 2.647 1.086 7.756 3.868 7.973 7.007a3.869 3.869 0 01-1.5 2.986 20.8 20.8 0 01-2.634 2.052 31.444 31.444 0 01-3.071 1.764c-1.019.531-2.781 1.331-.925 2.237 1.864 1.163 3.634 2.465 5.452 3.7-1.575-.7-3.272-1.052-4.814-1.824-1.228-.561-2.406-1.224-3.584-1.885a3.229 3.229 0 00-1.506-.6c-1.37-.09-2.7-.454-4.071-.575a29.663 29.663 0 01-3.226-.387q-2.767-.537-5.5-1.253c-2.272-.54-4.582-.937-6.8-1.672-2.817-.877-6.735-2.637-7.217-5.877a5.679 5.679 0 011.782-4.92z" fill="#03438d"/><path data-name="Path 130" d="M28.449 94.06a1.118 1.118 0 01.993-.731c.919-1.832 3.474 1.2 1.57 2.43-1.083.725-3.003-.339-2.563-1.699zm2.515.546s0-.022-.007-.046-.011-.058-.017-.087a.782.782 0 01-.957.659 1.9 1.9 0 00.215.023c.338.01.756-.171.77-.548z" fill="#03438d"/><path data-name="Path 131" d="M18.401 93.205a.909.909 0 01.535-1.167.8.8 0 00.278-.135 1.473 1.473 0 012.075.916 1.041 1.041 0 01-.864 1.109 2 2 0 01-2.024-.723zm2.1-.193a1.702 1.702 0 00-.074-.073l-.133-.1a.821.821 0 01-.136.269.752.752 0 00.345-.095z" fill="#03438d"/><path data-name="Path 132" d="M10.978 92.639c.472-1.138-1.422-2.185-2.148-1.2a.822.822 0 00-.512 1.213c.574.664 2.23.956 2.66-.013z" fill="#03438d"/><path data-name="Path 133" d="M61.587 123.239a4.306 4.306 0 001.681.418c.033.005.064.009.1.012a1.1 1.1 0 00.944-.34c-.481-1.5-2.264-2.838-3.856-2.416-1.02.907-.014 1.816 1.135 2.327zm3.27-1.222c.331.489.666 1.521.038 1.962a1.387 1.387 0 01-1.4.849 5.449 5.449 0 01-3.919-1.625 2.139 2.139 0 011.329-3.491 4.458 4.458 0 013.952 2.305z" fill="#03438d"/><path data-name="Path 134" d="M62.35 121.776a1.246 1.246 0 00-.763 1.463.905.905 0 001.091.832 1.315 1.315 0 00.686-.4c.71-.795.385-2.318-1.014-1.895z" fill="#03438d"/><path data-name="Path 135" d="M61.415 115.838c-.832.022-3.009-.16-2.9 1.086a.435.435 0 00.536.35 5.419 5.419 0 012.835-.1 15.106 15.106 0 013.472 1.819c.5.266 1.018 1.358 1.628.9.982-.857-1.074-2.035-1.7-2.491-1.233-.62-2.453-1.534-3.871-1.564z" fill="#03438d"/><path data-name="Path 136" d="M65.077 130.429c-.985.756.733 2.869 1.764 2.628.692.014 2.441-1.54 1.135-1.839-.453.115-.681.658-1.164.745-1.182.047-.762-1.973-1.735-1.534z" fill="#03438d"/><path data-name="Path 137" d="M63.118 125.997a.6.6 0 00-.5.821c.088.36.038 1.1.6.992.489-.141.425-.7.327-1.095-.046-.278-.062-.697-.427-.718z" fill="#03438d"/><path data-name="Path 138" d="M61.114 125.484a.664.664 0 00-.358.885c.072.345.177.961.663.767.457-.2.352-.749.233-1.133-.03-.27-.232-.625-.538-.519z" fill="#03438d"/><path data-name="Path 139" d="M58.924 124.906c-.271.374-.032.828.044 1.227a.386.386 0 00.539.29c.475-.208.336-.769.228-1.164-.024-.463-.476-.79-.811-.353z" fill="#03438d"/><path data-name="Path 140" d="M72.488 128.073a.649.649 0 00-.134.683c.01.311.124.742.521.641.738-.17.408-2.021-.387-1.324z" fill="#03438d"/><path data-name="Path 141" d="M61.203 175.88c.173-.454.086-1.4-.6-1.147-.469.209-.426.673-.434 1.088-.022.733.878.687 1.034.059z" fill="#03438d"/><path data-name="Path 142" d="M18.705 186.429a112.431 112.431 0 00.718 13.361c.575 5.074 1.339 10.361 4.046 14.779 2.2 3.885 5.32 7.653 10.225 7.387a7.079 7.079 0 003.337-.8 3.445 3.445 0 01-.034.55 46.966 46.966 0 00.479 8.39c.188 1.651.119 3.161.2 4.781.159 2.433.546 4.846.7 7.281.54 6.505.893 13.02 1.527 19.518.462 4.521 1.165 9.019 1.559 13.549.456 5.026 1.259 10.009 1.649 15.041.341 2.31.444 4.647.906 6.94.094.41.08 1.176.46 1.358a.489.489 0 00.092.247c.429.881 3.808.546 4.795.6 1.448.1 1.494-.707 1.475-1.735 2.331 1.868 5.693 2.423 8.586 2.425 2.213-.138 4.571-.659 6.111-2.377.42-.521 1.18-1.333.692-2.011a1.862 1.862 0 00-1.36-.676 20.943 20.943 0 00-2.2-.387c-1.157-.241-2.276-.653-3.454-.807a7.079 7.079 0 01-2.586-.6 49.138 49.138 0 01-1.077-6.2c-.243-2.084-.4-4.182-.565-6.27-1.213-8.515-1.153-17.139-2-25.692-.956-9.532-.87-19.1-.967-28.669-.174-2.816-.088-5.636-.157-8.453A71.146 71.146 0 0151.5 208a8.826 8.826 0 013.358-.51c-.019 1.611-.184 3.222-.113 4.837.228 2.462.508 4.919.623 7.39.414 8.337 1.2 16.648 1.563 24.987-.086 2.592.3 5.147.435 7.726.121 3.576.316 7.147.435 10.723.017 5.494.965 10.932 1.121 16.411.111 2.351.776 4.645.751 7 .006.95.019 1.9.056 2.848.044.395-.113 1.05.266 1.228.255.722 1.971.569 2.594.854 2.45.6 1.923-.661 1.971-2.464a8.759 8.759 0 006.122 3.05 10.323 10.323 0 008.461-3.383c.906-1.611-2.281-1.54-3.17-2-.829-.3-1.678-.544-2.488-.854a6.409 6.409 0 00-1.082-.433 27.182 27.182 0 01-.442-2.8c-.385-3.088-.544-6.187-.856-9.279-.722-20.135-.034-40.315-.387-60.462a11.93 11.93 0 01.09-1.523 17.99 17.99 0 001.69-.021c1.132.021 2.956-.513 2.525-1.971-.029-1.153-.017-2.308-.021-3.463a345.07 345.07 0 00-.092-5.289 16.1 16.1 0 001.96 4.178c1.473 2.281 3.668 4.816 6.643 4.594 4.569-.04 7.668-2.442 9.8-6.346 1.105-2.256 1.32-4.825 1.665-7.283q.362-3.718.487-7.457c.061-6.342.4-12.7.146-19.041.046-2.548-.406-5.036-.481-7.574a50.268 50.268 0 01-.08-3.883v-.18c.151-.55.034-1.335.134-1.787.013-1.759.1-3.509.176-5.266.046-.556.067-1.115.163-1.665a9.938 9.938 0 00.542-1.728c.264-1.709-.793-2.379-2.222-1.393a2.047 2.047 0 00-.86-2.1c-.672-.253-1.4.193-2.038.393.159-1.586 1.684-4.264 1.124-5.549a1.1 1.1 0 00-1.6-.082.759.759 0 00-.082.192c-.027.029-.054.057-.08.09-1.762 1.611-2.255 4.04-3.044 6.2a23.311 23.311 0 00-1.055 5.854c-.439 3.364-.586 6.693-1.046 10.032-.751 5.394-1.119 10.833-1.437 16.265a327.421 327.421 0 00-.762-6.787c-.408-3.1-1.159-6.254-1.63-9.317-.527-3.8-1.069-7.7-2.7-11.208-1.644-3.634-4.069-3.935-7.526-5.1a28.227 28.227 0 01-3.379-.918 40.418 40.418 0 01-4.182-.751c.42-1.737.709-3.465 1.134-5.21 2.854-.644 6.354-.979 8.141-3.594a14.976 14.976 0 001.684-4.9 305.98 305.98 0 011.362-6.718c.036-.207.077-.412.119-.617a.74.74 0 00.577-.962.859.859 0 00-.274-.337c.142-.565.289-1.13.427-1.7a2.376 2.376 0 01.063-.278c.138-.487.372-1.05-.067-1.4-.343-.22-.749.153-.749.511a3.555 3.555 0 01-.111.594c-.092.354-.215.707-.285 1.063l-.2.753a3.456 3.456 0 01-.088-.05c-.841-.458-4.187-.795-4.082.684.094.467.611.349.946.255a6.07 6.07 0 011.645.033 3.289 3.289 0 011.245.5c-.121.54-.232 1.082-.339 1.626a4.594 4.594 0 00-2.546-.843 3.421 3.421 0 00-2.41 1.806c-.247-.569-.335-1.025-.1-1.281.831-.908-.542-1.724-1.151.123-.32 2.017 2.366 4.45 2.613 6.473-1.226.741-2.507-1-3.494-1.586-.513-.4-1.084.536-.592.887.285.211.488.389.76.6 1 .81 2.178 1.9 3.523 1.161 1.32-.7.672-2.295-.192-3.869a3.409 3.409 0 001.879-.029 2.534 2.534 0 001.14-.374c-.239 1.316-.481 2.63-.764 3.935-.431 1.419-.764 3.017-1.9 4.055-1.977 1.588-4.722 1.8-7.084 2.391-.931.136-.881 2.371-1.163 3.155-.3 1.316-.437 2.672-.858 3.958a.614.614 0 00-.021.1 21.964 21.964 0 01-2.806 3.174c-.87.9-1.6 1.94-2.469 2.8-3.009-1.873-5.526-4.417-8.488-6.364a15.1 15.1 0 01-1.232-.952c1.082-6.128 2.266-12.263 3.262-18.4 0-.04.006-.077.006-.113a.534.534 0 00-.023-.215.531.531 0 00-.239-.347c-.418-.4-1.2-.7-1.467-1.142a2.483 2.483 0 01-.448-2.373c.343-.694 1.1-.722 1.833-.573a6.117 6.117 0 01.7.186c.119.036.23.075.333.109.013.006.027.01.038.013a.641.641 0 00.571-.987 3.291 3.291 0 00-1.634-.54 2.183 2.183 0 00-.458-.054 2.356 2.356 0 00-2.473 2.289 3.667 3.667 0 001.766 3.747c.105.082.228.184.358.276-.8 3.994-1.354 8.032-2.067 12.047-.341 1.67-.5 3.371-.828 5.042-.138.031-.276.084-.4.115-1.789.322-3.5.925-5.268 1.347-5.293 2.053-11.285 2.067-16.2 5.111-2.709 1.4-4.132 4.073-4.933 6.908a42.793 42.793 0 00-1.184 11.289c-.279 6.707-.005 13.428.121 20.136zm55.617-61.643c-.318.057-.479.349-.7.552a6.434 6.434 0 01-.711.207c.538-.749.14-2.075-1.033-1.668a1.185 1.185 0 00-.508 1.665c-1.5-.557-.684-1.492.59-1.992a3.242 3.242 0 012.264.808.515.515 0 00.08.416.085.085 0 00.018.011zm-21.5 23.4a19.482 19.482 0 00-2.191 3.383c-.9-.588-1.835-1.145-2.707-1.78a.463.463 0 00-.125-.052c-.094-1.919-.326-3.825-.521-5.735 1.513 1.167 3.155 2.2 4.628 3.419q.458.389.92.765zM56.55 151c-.274 3.264-.623 6.521-.6 9.8-.044 3.333-.379 6.668-.3 10a12.355 12.355 0 01-.052 1.3 2.759 2.759 0 00-.071.829l-.071.012a20.307 20.307 0 00-4.559.891 17.271 17.271 0 00-2.04.778c-.128-1.965-.2-3.936-.261-5.906-.284-3.1-.343-6.21-.36-9.323-.138-2.768-.259-5.54-.379-8.31 1.011.684 2.636 2.013 3.1 1.657a18.022 18.022 0 001.992-3.094c.149-.293.465-.544.653-.831.31.245.623.49.935.732a10.721 10.721 0 002 1.387.5.5 0 00.016.078zm-4.887 38.6a14.352 14.352 0 013.655 1.561 10.257 10.257 0 01-4.186-.962 9.225 9.225 0 01-.609-.27c-.427-.211-.856.241-.86.657a.9.9 0 00-.284.559 119.534 119.534 0 01-.59 3.322c-.657-.609-1.255-1.274-1.879-1.916-.68-.609-1.222-1.349-1.9-1.962a3.693 3.693 0 01-.812-.845.492.492 0 00-.1-.094 34.759 34.759 0 003.6-5.042 3.709 3.709 0 011.824.149 36.1 36.1 0 012.232.494c1.174.234 3.3.333 4.147 1.184-1.745.006-3.5-.439-5.228-.462-.385.142-.525.82-.113 1.008a19.139 19.139 0 013.3.831c.753.2 1.649.3 2.057 1.059a11.746 11.746 0 01-3.81-.328c-.527-.159-1.418-.584-1.563.253-.112.671.696.617 1.123.805zm6.955-39.857c.95.95 1.977 1.829 2.879 2.829a6.751 6.751 0 00.454.5l-.052 1.877c-.138 4.164-.084 8.331-.356 12.49 0 1.082.006 2.165-.023 3.247a12.244 12.244 0 01-.067 1.243c-.193.019-.387.042-.578.056-1.448.222-2.887.51-4.327.77.054-.3.021-.646.057-.916.107-1.368-.111-2.734.034-4.1.23-5.344.245-10.7.772-16.024a3.057 3.057 0 00.059-.889 5.391 5.391 0 001.152-1.083zm3.632-4.1c-.01.138-.019.276-.027.416-.105 1.82-.172 3.643-.226 5.465-.577-.609-1.2-1.176-1.795-1.764-.31-.278-.626-.55-.908-.856.153-.188.3-.37.462-.538.832-.9 1.726-1.768 2.498-2.726zm-.941 54.056a1.977 1.977 0 00.328-.941c.782-5.49.958-11.034 1.456-16.547.015-1.94 1.065-9.22-.314-10.229a.674.674 0 00-.247-.117 11.871 11.871 0 01-.019-1.393c.059-1.734.033-3.467.184-5.2.243-7.053.3-14.126.651-21.169.736.215 1.46.467 2.2.644a.545.545 0 00.19.165c.559 1.442 1.494 2.7 2.167 4.09a13.74 13.74 0 01-2.764.678.653.653 0 00-.525.931 20.178 20.178 0 003.046 1.977c-1.278 4.737-2.831 9.432-3.427 14.321-.14.931-.395 1.835-.623 2.743-.1.6.636.745.854.2.753-2.1.816-4.371 1.331-6.532.352-1.9 1.067-3.7 1.406-5.6.435-1.78 1.153-3.515 1.456-5.331-.063-1.061-1.4-1.32-2.13-1.85 4.048-.7 1.86-2.561.659-4.921a6.033 6.033 0 01-.337-.667c.05 0 .1.008.148.01.987.128 1.864.634 2.843.8a30.616 30.616 0 013.82 1.1 5.884 5.884 0 014.182 3.883 25.474 25.474 0 011.628 5.7c.626 2.774.879 5.588 1.465 8.356a104.9 104.9 0 011.726 12.055q.385 3.253.672 6.525c-.04 1.078-.065 2.159-.1 3.237.1.6-.335 2.425.452 2.391 0 .086.008.17.012.255a.419.419 0 00.517.4c.818-.3.243-1.741.343-2.416-.019-1.262-.132-2.519-.255-3.776.033-.808.073-1.615.13-2.423.466-7.222.86-14.449 1.958-21.6.021-.19.04-.381.059-.571.044-.412.084-.826.125-1.239.215-2.274.391-4.559.692-6.819a23.7 23.7 0 011.247-6.306c.657-1.739.988-3.7 2.393-5.036a1.4 1.4 0 00.259-.232l.061-.008a17.422 17.422 0 01-.856 2.948c-.241.828-.4 1.676-.584 2.519-.155.283-.094.741.261.826.628.071 2.075-1.038 2.58-.68.716.952-.63 2.013-.222 2.921.669.739 1.519-1.412 2.644-1.358.23 1-.655 1.795-.672 2.764-.224 1.755-.188 3.523-.27 5.287a21.266 21.266 0 01-.088 2.419c-.01.107-.029.237-.044.374a.516.516 0 00-.017.209 1.329 1.329 0 00.031.387q-.023.592-.029 1.184t.006 1.2c.013.791.046 1.582.092 2.371a155.018 155.018 0 01.443 20.817c-.029 3.724-.109 7.446-.452 11.156-.308 2.682-.488 5.513-1.644 7.988-2.053 3.86-5.433 6.1-9.894 5.6-3.09-.716-5.408-4.611-6.415-7.413a11.929 11.929 0 01-.9-3.5 6.7 6.7 0 00-.251-1 .419.419 0 00-.222-.2 129.465 129.465 0 00-.552-7.354c-.4-9.08-.266-18.141.006-27.22-.038-.647.337-1.469-.128-2-.408-.27-.883.289-.76.688-.329 2.971-.211 5.973-.262 8.959a246.096 246.096 0 00.065 16.57c-.011 3.458.477 6.887.67 10.333.111 4.584.32 9.191.289 13.765-2.057.806-4.35.144-6.492.094a4.907 4.907 0 01-4.521-2.5c-.914-2.031-1.029-4.339-1.525-6.494a9.35 9.35 0 01-.182-1.128.292.292 0 00-.019-.073zm-12.1-2.142c.3-1.115.617-2.218.82-3.354.079-.986.335-1.956.483-2.923a10.074 10.074 0 004.653.975c1.444-.077 1.594-1.711.32-2.264 1.774-.021 1.73-1.613.557-2.527a1.178 1.178 0 00.458-1.946c-.785-.81-2-.872-3.023-1.188-1.473-.163-2.9-.707-4.364-.939a14.477 14.477 0 00.157-2.387c.065-1.672.161-3.343.111-5.017 1.954-1.119 4.207-1.36 6.377-1.751 2.063-.328 4.073-.9 6.159-1.067a.991.991 0 00.159.015 10.846 10.846 0 01.079 3.245 192.195 192.195 0 00-.37 6.166c-.41 5.454-.55 10.936-1.308 16.357-2.105 1.088-4.617.609-6.879 1.109-.973.241-1.937.519-2.925.688-.331.006-.912.3-1.019-.123-.063-.787-.169-1.571-.247-2.358a1.148 1.148 0 00-.194-.714zm-4.08 13.4c.184-.452.358-.906.527-1.362a69.116 69.116 0 002.31-7.214c.207.278.588.374 1.26.121-.2 1.925.05 3.912-.23 5.793-.2.854-1.182 1.044-1.833 1.479a15.5 15.5 0 01-2.031 1.176zm-25.314-46.361c.019-4.138.36-8.453 2.174-12.233 1.674-3.253 6.023-4.628 9.344-5.517 2.439-.557 4.894-1.054 7.3-1.722.757-.255 1.5-.54 2.266-.764a22.935 22.935 0 00-1.423 2.142 4.452 4.452 0 00-.954 1.795c-.439 1.49 2.935 2.216 3.915 2.737-1.136.32-3.829.617-3.1 2.335.916 2.571 1.58 5.228 2.479 7.808 1.2 3.915 2.065 7.959 3.446 11.806.238.59.7 4.065 1.578 3.423.768-.609-.178-1.6-.264-2.345-.341-1.8-1.084-3.486-1.536-5.253a270.01 270.01 0 00-4.666-15.993c.952-.441 4.718-.64 3.7-2.326-1.446-.812-3.18-1.1-4.5-2.155a39.985 39.985 0 012.235-3.383c.176-.337.548-.659.747-1.015a27.606 27.606 0 012.977-.8c.182-.048.377-.086.571-.134a.51.51 0 00.034.073c.017.015.034.031.052.044.015.416.1.849.09 1.255.14 1.755.362 3.5.442 5.264.174 3.337.3 6.678.521 10.011-.08 3.459.176 6.9.389 10.35.036 1.8.151 3.6.266 5.4a3.132 3.132 0 01.042.6 5.756 5.756 0 00-.05.709c-.006.011-.01.025-.015.036-.188.883-.161 1.822-.289 2.724-.1 1.234-.079 2.473-.088 3.709a1.3 1.3 0 00-.021.2c-.678.266-1 1.071-1.4 1.668-.343.492-.711.967-1.071 1.446-1.889 2.46-3.674 5.036-5.653 7.423-1.529 1.674-2.9 3.477-4.479 5.1-.46.492-.895 1.008-1.352 1.5-.027-1.011-.115-2.019-.18-3.029-.243-2.364-.163-4.685-.374-7.028-.626-7.919-.795-15.863-.674-23.8.029-.967.04-1.937.115-2.9.027-.343.165-.728-.048-1.034-.335-.412-.933.029-.9.479a46.035 46.035 0 00-.3 7.214c-.023 7.082.262 14.108.8 21.161.14 2.937.266 5.871.508 8.8.013.314-.059.8.155 1.027l-.188.163c-.544.473-.059 1.565.655 1.027a145.638 145.638 0 0010.283-11.948 6.919 6.919 0 00.659.619 14.712 14.712 0 011.138 1.155c.962.983 1.881 2.008 2.875 2.958a3.013 3.013 0 01.46.443 45.795 45.795 0 01-.858 3.394 78.609 78.609 0 01-3.011 9.905c-1.488 4.126-3.7 8.156-7.377 10.689a8.156 8.156 0 01-7.58.046 15.153 15.153 0 01-2.741-2.243 26.585 26.585 0 01-5.492-11.917c-1.858-10.1-1.521-20.412-1.755-30.607-.081-3.507.017-6.993.126-10.499z" fill="#03438d"/><path data-name="Path 143" d="M75.412 112.825a.368.368 0 00-.059-.474 6.983 6.983 0 01-.652-.353 18.2 18.2 0 01-2.171-1.446c-.306-.2-.6.327-.361.547a10.633 10.633 0 002.134 1.527c.318.128.84.62 1.109.199z" fill="#fff"/><path data-name="Path 144" d="M73.166 113.392c.286-.191.18-.8-.214-.584a7.519 7.519 0 01-2.494-2.215.259.259 0 00-.408-.011.394.394 0 00-.053.486c.2.269.419.524.643.775.437.446 1.894 1.978 2.526 1.549z" fill="#fff"/><path data-name="Path 145" d="M69.337 112.271c.314-.457-.269-.635-.537-.891a10.587 10.587 0 01-1.6-1.754c-.3-.358-.745.213-.5.514a10.921 10.921 0 002.029 2.065c.177.151.428.32.608.066z" fill="#fff"/></g><path data-name="Path 146" d="M244.857 78.511c.7 13.961-.473 27.885-.847 41.835-.63 28.023-1.227 56.049-.685 84.081a.214.214 0 010-.034v.162c.743 10.8.013 21.6 0 32.406-.1 15.972-.117 31.943-.264 47.914.057 9.333-.452 18.664-.281 27.995.155 3.549.2 7.1.282 10.653-.155 1.371.648 3.619-1.029 4.2-3.618 6.269-13.716 5.248-20.031 6.03a188.86 188.86 0 01-20.2.756c-14.4-.855-28.82-.139-43.226-.565l-.709-.027h-.005c-3.688-.263-7.379-.192-11.072-.133-5.465-.212-10.916-.73-16.379-1.015-4.834-.811-15.451-.335-17.279-5.672-2.067.873-1.421-2.373-1.527-3.528.052-3.848.21-7.694.228-11.544.056-12.486-.374-24.965-.453-37.45-.232-31.637-.551-63.28.522-94.9-.133-17.093-1.745-34.141-2.319-51.218v-.152c-.421-13.035-.869-26.053-.6-39.094a15.62 15.62 0 01-.319-4.645c.058-3.019-.223-6.039.038-9.049.446-3.169.052-7.411 3.7-8.75 4.679-2.022 9.865-2.457 14.879-3.029 9.833-1.2 19.727-.817 29.6-.8 11.867.1 23.746-.128 35.6.585 6.789.122 13.494 1.236 20.265 1.608a169.444 169.444 0 0120.7 1.5c3.58.64 8.2.461 10.288 3.975a.385.385 0 01.747.178c.126 2.537.415 5.127.376 7.727z" fill="#fff"/><path data-name="Path 147" d="M244.857 78.511c.039-2.6-.25-5.186-.387-7.735a.385.385 0 00-.747-.178c-2.089-3.515-6.708-3.335-10.288-3.975a169.444 169.444 0 00-20.7-1.5c-6.771-.372-13.476-1.486-20.265-1.608-11.853-.712-23.731-.486-35.6-.585-9.876-.013-19.77-.4-29.6.8-5.013.572-10.2 1.007-14.879 3.029-3.648 1.338-3.254 5.58-3.7 8.75-.261 3.01.02 6.03-.038 9.049a15.62 15.62 0 00.319 4.645c-.265 13.04.184 26.059.6 39.094l.005.14v.011c.574 17.077 2.186 34.125 2.319 51.218-1.072 31.623-.754 63.266-.522 94.9.079 12.484.509 24.964.453 37.45-.018 3.85-.176 7.7-.228 11.544.106 1.155-.54 4.4 1.527 3.528 1.828 5.337 12.445 4.861 17.279 5.672 5.463.284 10.914.8 16.379 1.015 3.693-.059 7.385-.13 11.072.133h.005l.709.027c14.406.426 28.824-.29 43.226.565a188.86 188.86 0 0020.2-.756c6.314-.783 16.413.239 20.031-6.03 1.677-.581.874-2.829 1.029-4.2-.084-3.553-.128-7.1-.282-10.653-.171-9.331.338-18.662.281-27.995.147-15.971.16-31.941.264-47.914.013-10.808.743-21.6 0-32.406v-.162a.214.214 0 000 .034c-.542-28.032.056-56.058.685-84.081.38-13.945 1.549-27.868.853-41.826zm-133.573 41.657l-.032-1.236.036 1.311-.004-.075zM211.85 80.356h-.083a90.117 90.117 0 01-.734-.036c.274.013.546.026.818.037zm-26.789-14.895l-1.038-.041c.347.011.691.029 1.038.042zm53.548 137.282v-.014a52.113 52.113 0 01-.025-1.311q.008.659.025 1.311a.321.321 0 010 .043zm.829-85.964a.082.082 0 000-.009c.174 12.193-1.331 24.372-1.121 36.552v.076c.011 5.717.585 11.418.4 17.136-.622 12.45-1.747 24.893-1.1 37.372.079 22.6.253 45.219-.47 67.81.171 12.193-1.432 24.332-.689 36.521v.054c.04 1.466.079 2.929.1 4.395-20.4.871-40.842.757-61.264.766-19.081.381-38.167.757-57.238 1.418-.387-13.972.016-27.948-.9-41.906-.322-14.706.036-29.414-.257-44.118-.027-1.86-.108-3.717-.167-5.573v-.11.081c-.1-19.363 1.195-38.734.5-58.1-.151-5.456.07-10.919-.3-16.372-.05-9.063-.739-18.1-1.049-27.151v-.085a229.025 229.025 0 01-.376-25.167c-.072-6.534-1.351-12.99-1.486-19.516 23.411-.387 46.878-.82 70.262.453 11.486.464 22.958 1.259 34.449 1.515 7.059.295 14.125.165 21.166.883-.333 3.171.318 6.31.428 9.469.27 7.884-1.092 15.731-.888 23.606z" fill="#03438d"/><path data-name="Path 148" d="M159.469 118.919c-3.344-.2-6.691-.317-10.037-.482h-.008c-4.85-.18-9.707.037-14.542-.492-2.88-.253-5.945-.342-8.536-1.757-5.062-3-7.408-9.5-6.05-15.137.959-3.069 3.5-5.379 6.168-7.03-.181-1.993-.957-3.907-1.147-5.882.364-1.633 1.928-.524 2.669.183 1.588 1.3 3.355 2.372 4.941 3.658a333.138 333.138 0 0139.964-1.695c10.777-.239 21.659-.213 32.224 2.177 10.531 2.662 13.523 19.533 2.361 23.626-7.772 3.269-16.44 2.244-24.669 2.5-7.78.032-15.557.784-23.338.331zm-32.49-25.2l.15-.082a.884.884 0 01-.139-.092c-.003.06-.006.117-.011.176zm61.147-1.469l.577.029-.5-.027a.706.706 0 00-.077 0zm-61.268-2.529a.781.781 0 01.186 0l-.2-.162c.007.054.01.108.014.164z" fill="#ccc"/><path data-name="Path 149" d="M151.742 207.841a83.856 83.856 0 01-11.824-1.464l.145.027c-4.844-1-10.533-1.512-13.632-5.884-3.65-5.624-4.3-13.954.237-19.27 2.137-2.276 5.348-2.761 8.239-3.48a12.7 12.7 0 01-.829-4.22c-.9-1.384-.472-2.381.879-.919.758-.16 1.147.658 1.113 1.311.429.508.875 1 1.32 1.493l-.015-.017c.5.543 1 1.083 1.492 1.628l-.035-.038c.209.189.36.519.665.544l-.085-.016a560.373 560.373 0 0160.406-.244c8.09.273 17.174.9 22.617 7.721 3.667 4.439 4.892 11.612 1.134 16.347-3.034 3.1-7.559 3.937-11.68 4.576a202.535 202.535 0 01-34.185 2.041h.008l-.133-.006h.047l-.365-.014h.007c-8.506-.055-17.029.617-25.526-.116zm-17.47-34.745l.016-.024-.044-.06z" fill="#ccc"/><path data-name="Path 150" d="M181.521 261.798c-6.1-.181-12.2-.439-18.292-.825-6.556-.834-13.111-1.677-19.68-2.406-8.188.018-9.367-9.1-9.765-15.483-1.841-13.834 2.642-15.307 14.962-18.3h-.011l.026-.006c13.558-2.717 27.588-2.651 41.343-1.779a41.984 41.984 0 006.037.192c4.326-.086 8.627.46 12.938.718a53.907 53.907 0 005.11-5.741c.528-.6.852-1.557 1.678-1.784 2.483.1 1.388 6.309 1.279 8.019 4.485-.36 7.488 3.461 8.98 7.263.859 2.479.355 5.15.693 7.715.238 5.036.714 10.175-.541 15.122-.589 4.588-5.875 4.461-9.429 5.017-5.93.736-11.919.662-17.848 1.42l.12-.013a97.427 97.427 0 01-17.6.871zm33.814-4.1c.467-.044.935-.085 1.4-.137q-.715.077-1.4.142zm-71.279-29.4c.145-.012.29-.037.435-.054zm70.739-5.568a.842.842 0 01.284.061c0-.217.01-.433.018-.65l-.301.597z" fill="#03438d"/><path data-name="Path 151" d="M200.414 158.174c-17.372-.774-35.134 1.2-52.172-2.956-7.2-1.1-9.558-18.16-4.947-22.522 5.54-3.378 15.575-3.961 22.1-4.393 13.929-1.3 27.954-.953 41.915-.378h-.1q1.848.069 3.7.126c.355-.467.738-.924 1.128-1.367l.237-.275v.005l.038-.045-.006.008c1.532-1.782 3.241-3.4 4.923-5.035.563-.446 1-1.33 1.789-1.321 1.887.888-.216 6.78-.752 8.385 7.118.51 11.052 7.988 10.642 14.529v-.034c0 .1.006.21.009.315v-.119c.054 2.709-.268 5.411-.478 8.109-.077 1.866-.767 3.739-2.658 4.413-8.035 3.154-16.909 2.507-25.368 2.555zm14-1.947c.4-.031.8-.06 1.2-.1q-.618.056-1.199.1zm2.554-30.384a1.68 1.68 0 01.035.233q.047-.228.1-.457z" fill="#03438d"/><path data-name="Path 152" d="M130.773 99.935c.119-1.693 2.109-1.14 3.272-1.365 2.392-.13 4.77-.4 7.16-.552 6.371-.4 12.734-.814 19.128-.737 5.584-.021 11.169.265 16.752.028 6.789-.579 13.607-.531 20.415-.454 1.576-.288 1.729 2.11.22 2.234-19.635.856-39.326-.008-58.936 1.327l.131-.014c-1.691.209-3.391.3-5.087.454-1.037.027-3.033.713-3.055-.921z" fill="#fff"/><path data-name="Path 153" d="M132.183 107.421c-1.464-.03-1.187-2.341.162-2.375.784-.03 1.571-.03 2.355-.1 5.059-.265 10.112-.679 15.174-.885 7.768-.523 15.548-.271 23.322-.1 7.912-.358 15.813-1.048 23.75-.905 1.246.217 4.971-.821 4.97.951a1.167 1.167 0 01-.639.992c-3.422.52-6.955.513-10.416.807-10.717.13-21.409 1.269-32.125.681h.019c-8.874-.337-17.718.558-26.572.934z" fill="#fff"/><path data-name="Path 154" d="M132.68 114.135a1.351 1.351 0 01.873-2.23c3.116-.216 6.224-.03 9.341-.082 10.129-.6 20.3.1 30.416-.688a187.111 187.111 0 0120.2-.486c1.861.057 3.722.1 5.581.207.922.039 2.663.044 2.126 1.431-.528 1.2-4.449.447-5.732.675-4.215.039-8.434-.158-12.645.086-10.859.693-21.767 1.264-32.651.98q-7.21.3-14.415.249c-1.007-.042-2.21.436-3.094-.142z" fill="#fff"/><path data-name="Path 155" d="M152.009 138.284c-1.223-1.3.333-2.294 1.695-2.186a103.3 103.3 0 017.943-.444c7.737-.9 15.469-1.908 23.25-2.343 8.7-.257 17.447-.6 26.147-.1 1.395.367 6.526-.522 4.8 2.091-1.06.693-3.86.085-5.286.319-5.846.159-11.7.09-17.541.3-13.246.581-26.449 1.775-39.688 2.415h.047l-.13.013.064-.006c-.433.012-.907.209-1.301-.059z" fill="#fff"/><path data-name="Path 156" d="M151.819 145.666a1.184 1.184 0 01.174-1.734c-.626-.866 1.819-.375 2.218-.494a200.636 200.636 0 0120.661-1.325c10.226-.3 20.441-1.151 30.681-1.079 4.539.083 9.1.029 13.619.551a.916.916 0 01.857 1.075c-.234 1.894-7.612 1.066-9.326 1.34-4.327-.089-8.65-.194-12.974.088-7.593.127-15.191-.131-22.783.114-5.193.183-10.386.356-15.565.807-1.756.195-3.506.455-5.253.716-.752.005-1.663.43-2.309-.059z" fill="#fff"/><path data-name="Path 157" d="M155.789 152.732a1.059 1.059 0 01-.761-1.468c-1.535-1.719 6.842-1.194 7.755-1.538 10.2-1.095 20.466-.784 30.694-1.042 6.559-.192 13.127-.365 19.69-.272 2.2.22 4.756-.248 6.764.647a.985.985 0 01-.6 1.5c-12.588-.262-25.158.482-37.734.666-4.889.345-9.792.452-14.684.729-3.711.159-7.401.966-11.124.778z" fill="#fff"/><path data-name="Path 158" d="M139.328 186.3c-.475-.055-1 .109-1.427-.152a1.235 1.235 0 01.42-2.1c3.079-.136 6.188-.24 9.276-.427a256.078 256.078 0 0128.4-.5c8.513.078 17.031.012 25.541.285h-.108a19.779 19.779 0 013.891.352.95.95 0 01-.026 1.624 10.715 10.715 0 01-3.439.149l.11.005c-13.206-.111-26.433-.425-39.641-.062-7.67.141-15.323.821-22.997.826z" fill="#fff"/><path data-name="Path 159" d="M151.769 191.887a110.191 110.191 0 01-11.97-1c-.844-.066-2.189.436-2.625-.541-.635-.578.351-1.558.987-1.586 2.617.051 5.223-.334 7.843-.242a299.766 299.766 0 0130.523.409h-.008.122-.05c7.242.284 14.482-.075 21.718-.339 1.857.152 7.484-.506 8.463.969.627 2.289-4.788 1.526-6.174 1.914a118.466 118.466 0 01-13.215.406c-11.869-.378-23.744.364-35.614.01z" fill="#fff"/><path data-name="Path 160" d="M183.056 200.821c-10.809-.237-21.62-.32-32.424-.669-1.968-.24-12.379 1.423-12.333-.626-.057-1.682 1.854-1.325 2.977-1.225a35.158 35.158 0 005.493-.16c8.22-.525 16.436-.447 24.67-.312 10.017.149 19.992-1.207 30.023-.89 1.393.25 6.347-.611 6.49 1.006 1.214 2.9-22.213 2.682-24.896 2.876z" fill="#fff"/><path data-name="Path 161" d="M145.563 232.71c-1.061-2.315 1.835-2.052 3.272-2.133 3.3-.116 6.613-.162 9.912-.359a192.03 192.03 0 0129.562-1.052c5.56.02 11.111-.536 16.667-.082h-.112c2.4.212 4.867-.17 7.229.327a1.009 1.009 0 01.441 1.7 6.012 6.012 0 01-2.8.748c-4.688.682-9.405-.219-14.1-.305h.028c-2.726-.106-5.451-.249-8.176-.373h.043-.067.026-.069.029c-8.97-.112-17.9.527-26.861.956-2.891.5-5.832.385-8.747.633-1.437-.164-5.552.803-6.277-.06z" fill="#fff"/><path data-name="Path 162" d="M144.658 240.218c-.895-.254-.833-1.592-.093-2 .817-.422 1.828-.178 2.718-.367h-.024c3.2-.337 6.373-.828 9.574-1.113l-.114.012h.03l-.045.005.093-.01h-.027a105.022 105.022 0 0118.538-.713c10.382.142 20.768-.587 31.148-.263 2.332.133 4.66.356 6.984.593 1.182-.1 2.071 1.076.864 1.854a72.671 72.671 0 01-9.1.281c-16 .224-32.034-.916-48 .379l.092-.01c-.212.025-.423.045-.635.066h.044c-4.024.336-8.028 1.137-12.047 1.286z" fill="#fff"/><path data-name="Path 163" d="M145.649 246.897c-1.6-2.769 3.481-1.791 4.9-2.039 3.253-.008 6.5-.1 9.755-.123 7.623-.225 15.25-.831 22.881-.664h-.014l.659.026h-.029.1-.026l1.081.043h-.124c7.434.319 14.859-.6 22.3-.317 1.4.251 8.216-.481 6.377 2.161-.7.624-1.8.4-2.677.555-2.208.18-4.422.235-6.636.243-7.448.065-14.9-.237-22.344-.02-6.248.237-12.5-.4-18.743.019a96.6 96.6 0 01-11.51.191c-1.911-.162-4.199.512-5.95-.075z" fill="#fff"/><path data-name="Path 164" d="M193.693 257.133c-10.941-.07-21.89-.251-32.819-.442-2.8.112-5.61.014-8.411-.132-1.477-.369-6.006 1.169-5.335-1.505-.375-.432.164-.865.622-.744 2.606-.385 5.357-.02 8 .055h-.05l.138.006h-.07c8.657.012 17.311.055 25.965-.235 10.615.392 21.241-.139 31.865-.1 2.1-.375 2.661 1.661.637 2.037-6.769 1.146-13.687 1.121-20.542 1.06z" fill="#fff"/><path data-name="Path 165" d="M176.528 74.201a.526.526 0 01-.075-.417c-.117-.713.678-1.391.88-.465.031.458-.22 1.392-.805.882z" fill="#fff"/><path data-name="Path 166" d="M177.612 76.166c-3.423-.675-1.316-5.149 1.01-3.436 2.316.611 1.202 4.006-1.01 3.436zm.454-1.369c.008-.179.027-.356.044-.534a1.5 1.5 0 00-.428-.012.967.967 0 01-.038.475 1.756 1.756 0 00.422.068z" fill="#fff"/></svg>